<svg width="158" height="108" viewBox="0 0 158 108" fill="none" xmlns="http://www.w3.org/2000/svg">
<path fill-rule="evenodd" clip-rule="evenodd" d="M148 108H10C4.47716 108 0 103.523 0 98V10C0 4.47715 4.47716 0 10 0H148C153.523 0 158 4.47715 158 10V98C158 103.523 153.523 108 148 108ZM148 104C151.314 104 154 101.314 154 98V10C154 6.68629 151.314 4 148 4H10C6.68629 4 4 6.68629 4 10V98C4 101.314 6.68629 104 10 104H148Z" fill="black"/>
<path d="M35 55H4V51H35V55Z" fill="black"/>
<path d="M154 55H70V51H154V55Z" fill="black"/>
<path d="M70 4V104H66V4H70Z" fill="black"/>
<path d="M39 4V104H35V4H39Z" fill="black"/>
</svg>