<svg width="300" height="300" viewBox="0 0 300 300" fill="none" xmlns="http://www.w3.org/2000/svg">
<rect width="300" height="300" fill="#133046"/>
<path d="M174.913 141.283L190.826 114.281L233.718 181.087L233.739 193.908L233.599 105.685C233.497 103.528 232.352 101.556 230.525 100.392L153.303 55.9728C151.498 55.0846 149.206 55.0949 147.403 56.0009C147.159 56.1223 146.93 56.2553 146.712 56.4004L146.443 56.5695L71.487 100.006L71.1964 100.138C70.8224 100.31 70.444 100.528 70.0896 100.782C68.6681 101.801 67.7246 103.308 67.4193 104.999C67.3733 105.255 67.3394 105.516 67.3238 105.78L67.4416 177.673L107.393 115.749C112.424 107.538 123.382 104.894 133.556 105.037L145.496 105.352L75.1418 218.181L83.4352 222.955L154.632 105.467L186.101 105.353L115.088 225.806L144.681 242.828L148.217 244.861C149.713 245.469 151.476 245.5 152.984 244.955L231.291 199.574L216.32 208.25L174.913 141.283ZM180.984 228.728L151.095 181.817L169.341 150.855L208.595 212.727L180.984 228.728Z" fill="#2D374B"/>
<path d="M151.095 181.816L180.984 228.728L208.595 212.726L169.341 150.855L151.095 181.816Z" fill="#28A0F0"/>
<path d="M233.739 193.908L233.718 181.087L190.826 114.281L174.913 141.283L216.32 208.249L231.291 199.574C232.759 198.381 233.648 196.631 233.741 194.742L233.739 193.908Z" fill="#28A0F0"/>
<path d="M54.0004 205.999L75.1418 218.181L145.496 105.353L133.556 105.038C123.382 104.894 112.423 107.539 107.393 115.75L67.4412 177.673L54.0004 198.325V205.999V205.999Z" fill="white"/>
<path d="M186.101 105.353L154.632 105.467L83.4352 222.955L108.321 237.283L115.088 225.806L186.101 105.353Z" fill="white"/>
<path d="M247 105.191C246.737 98.6095 243.173 92.5848 237.592 89.0772L159.358 44.0866C153.836 41.3065 146.939 41.303 141.408 44.0848C140.754 44.4147 65.327 88.1591 65.327 88.1591C64.283 88.6599 63.2775 89.2562 62.3318 89.9332C57.3491 93.5042 54.312 99.0536 54 105.15V198.325L67.4407 177.673L67.3233 105.78C67.339 105.517 67.372 105.258 67.4188 105.003C67.7228 103.311 68.6672 101.802 70.0891 100.783C70.444 100.529 147.159 56.1228 147.403 56.0009C149.206 55.0954 151.498 55.0847 153.303 55.9728L230.525 100.391C232.352 101.555 233.497 103.527 233.599 105.684V194.742C233.506 196.631 232.759 198.381 231.291 199.574L216.32 208.249L208.595 212.726L180.984 228.727L152.984 244.954C151.476 245.499 149.712 245.468 148.217 244.86L115.088 225.806L108.32 237.283L138.092 254.425C139.077 254.985 139.954 255.481 140.674 255.885C141.788 256.51 142.548 256.928 142.816 257.058C144.932 258.086 147.977 258.684 150.72 258.684C153.235 258.684 155.688 258.222 158.009 257.313L239.339 210.213C244.007 206.596 246.753 201.142 247 195.233V105.191Z" fill="#96BEDC"/>
</svg>
