<?xml version="1.0" standalone="no"?>
<!DOCTYPE svg PUBLIC "-//W3C//DTD SVG 20010904//EN"
 "http://www.w3.org/TR/2001/REC-SVG-20010904/DTD/svg10.dtd">
<svg version="1.0" xmlns="http://www.w3.org/2000/svg"
 width="5263.000000pt" height="5241.000000pt" viewBox="0 0 5263.000000 5241.000000"
 preserveAspectRatio="xMidYMid meet">
<metadata>
Created by potrace 1.16, written by Peter Selinger 2001-2019
</metadata>
<g transform="translate(0.000000,5241.000000) scale(0.100000,-0.100000)"
fill="#000000" stroke="none">
<path d="M25225 51555 c-822 -45 -1557 -106 -1985 -165 -41 -6 -127 -17 -190
-25 -238 -30 -519 -70 -605 -85 -33 -6 -100 -17 -150 -25 -49 -8 -132 -21
-182 -30 -51 -8 -132 -22 -180 -30 -96 -16 -242 -42 -313 -56 -48 -9 -145 -28
-275 -53 -115 -22 -274 -55 -320 -65 -22 -6 -85 -19 -140 -31 -111 -23 -124
-26 -310 -70 -71 -17 -157 -37 -190 -45 -147 -34 -580 -144 -705 -179 -466
-130 -670 -189 -895 -260 -44 -14 -123 -38 -175 -54 -124 -39 -567 -186 -650
-217 -36 -13 -105 -38 -155 -56 -134 -47 -386 -139 -420 -154 -16 -7 -50 -20
-75 -28 -25 -8 -58 -21 -75 -27 -16 -7 -39 -16 -50 -21 -11 -4 -135 -53 -275
-109 -140 -55 -264 -105 -275 -110 -11 -5 -96 -41 -190 -80 -93 -40 -188 -80
-210 -90 -22 -9 -78 -34 -125 -55 -47 -21 -113 -50 -148 -66 -35 -16 -65 -29
-67 -29 -2 0 -41 -18 -87 -39 -46 -21 -157 -73 -248 -116 -514 -240 -1174
-583 -1760 -913 -225 -127 -569 -332 -853 -508 -70 -43 -135 -84 -145 -89
-149 -89 -854 -560 -1087 -726 -38 -28 -81 -58 -95 -67 -91 -61 -680 -498
-847 -629 -34 -26 -88 -68 -120 -93 -59 -46 -289 -230 -332 -265 -187 -155
-320 -266 -401 -335 -48 -41 -126 -109 -175 -150 -48 -41 -100 -86 -115 -100
-15 -14 -76 -68 -136 -120 -448 -393 -1352 -1275 -1700 -1657 -54 -60 -150
-164 -215 -233 -64 -69 -136 -147 -159 -175 -23 -27 -49 -57 -58 -65 -9 -9
-39 -42 -67 -75 -27 -33 -64 -76 -81 -95 -18 -19 -51 -57 -75 -84 -24 -27 -56
-63 -72 -79 -15 -16 -27 -32 -27 -36 0 -3 -8 -14 -17 -22 -10 -9 -45 -48 -78
-88 -33 -39 -63 -71 -67 -71 -4 0 -8 -5 -8 -11 0 -10 -18 -32 -72 -90 -10 -11
-18 -23 -18 -28 0 -5 -4 -11 -9 -13 -5 -1 -32 -32 -60 -67 -73 -92 -113 -141
-133 -162 -10 -10 -30 -36 -45 -56 -16 -21 -36 -47 -45 -58 -20 -23 -174 -218
-203 -256 -11 -14 -54 -71 -96 -127 -42 -55 -82 -107 -88 -114 -6 -7 -25 -31
-42 -53 -16 -22 -35 -47 -42 -55 -7 -8 -30 -40 -52 -70 -21 -30 -42 -57 -45
-60 -3 -3 -30 -39 -60 -80 -29 -41 -57 -76 -62 -78 -4 -2 -8 -8 -8 -13 0 -5
-30 -51 -68 -102 -37 -50 -75 -104 -84 -118 -9 -14 -23 -33 -30 -40 -13 -14
-31 -40 -135 -192 -29 -43 -58 -83 -63 -90 -6 -7 -26 -37 -47 -67 -117 -177
-178 -265 -185 -268 -5 -2 -8 -8 -8 -13 0 -6 -5 -15 -10 -22 -6 -7 -29 -41
-52 -77 -23 -36 -68 -104 -100 -153 -32 -48 -58 -90 -58 -92 0 -3 -15 -26 -33
-52 -19 -27 -58 -88 -88 -137 -30 -48 -62 -100 -71 -115 -10 -14 -27 -42 -38
-61 -11 -19 -54 -89 -95 -155 -42 -66 -79 -127 -82 -135 -4 -8 -26 -45 -50
-82 -24 -36 -43 -70 -43 -73 0 -4 -9 -19 -19 -34 -11 -14 -30 -47 -43 -71 -33
-62 -51 -92 -64 -110 -11 -14 -50 -84 -90 -160 -11 -19 -21 -37 -24 -40 -6 -6
-50 -86 -65 -117 -5 -13 -13 -23 -17 -23 -5 0 -8 -4 -8 -10 0 -5 -34 -70 -75
-145 -41 -74 -75 -137 -75 -139 0 -2 -21 -41 -46 -87 -131 -236 -485 -942
-614 -1224 -17 -38 -47 -101 -65 -140 -42 -89 -95 -205 -95 -210 0 -2 -13 -32
-29 -67 -16 -35 -43 -97 -61 -138 -43 -98 -78 -177 -98 -220 -9 -19 -17 -37
-17 -40 -1 -3 -7 -18 -14 -35 -7 -16 -19 -46 -26 -65 -7 -19 -22 -55 -33 -80
-12 -25 -39 -91 -61 -148 -22 -57 -47 -118 -55 -135 -8 -18 -26 -61 -39 -97
-14 -36 -31 -78 -38 -95 -7 -16 -13 -32 -14 -35 -5 -15 -19 -49 -31 -77 -8
-17 -14 -35 -14 -40 0 -6 -7 -24 -16 -42 -9 -17 -17 -37 -18 -44 -2 -7 -6 -20
-9 -29 -4 -10 -10 -26 -14 -35 -3 -10 -7 -22 -8 -28 -3 -11 -41 -110 -54 -140
-14 -30 -55 -148 -57 -161 -1 -6 -9 -27 -17 -45 -9 -19 -26 -65 -38 -104 -12
-38 -25 -74 -29 -80 -4 -5 -11 -23 -15 -40 -5 -16 -9 -34 -11 -40 -4 -15 -133
-390 -135 -392 -1 -2 -2 -6 -3 -10 -5 -22 -49 -161 -56 -178 -7 -16 -49 -149
-55 -175 -11 -43 -19 -67 -27 -76 -5 -7 -8 -16 -6 -20 2 -8 -35 -134 -52 -179
-5 -11 -12 -33 -16 -50 -10 -40 -9 -38 -39 -140 -36 -120 -102 -356 -121 -430
-19 -73 -21 -81 -33 -125 -6 -19 -22 -80 -36 -135 -14 -55 -28 -107 -30 -115
-6 -19 -26 -100 -30 -120 -2 -8 -8 -35 -15 -60 -7 -25 -14 -54 -16 -65 -3 -21
-37 -164 -54 -227 -27 -102 -39 -156 -56 -243 -2 -11 -8 -38 -13 -60 -5 -22
-16 -71 -24 -110 -56 -258 -69 -322 -72 -340 -2 -11 -8 -42 -14 -70 -6 -27
-18 -88 -27 -135 -8 -47 -20 -107 -25 -135 -6 -27 -12 -59 -14 -70 -1 -11 -8
-47 -15 -80 -7 -33 -14 -71 -15 -85 -2 -14 -9 -54 -15 -90 -7 -36 -14 -76 -16
-90 -2 -14 -8 -50 -13 -80 -5 -30 -16 -98 -25 -150 -8 -52 -20 -126 -27 -165
-6 -38 -13 -81 -14 -95 -2 -14 -9 -59 -15 -100 -6 -41 -13 -88 -15 -105 -2
-16 -9 -64 -15 -105 -6 -41 -17 -127 -25 -190 -8 -63 -19 -151 -25 -195 -6
-44 -13 -96 -15 -115 -2 -19 -9 -78 -15 -130 -7 -52 -13 -111 -15 -130 -2 -19
-9 -82 -15 -140 -7 -58 -14 -123 -15 -145 -2 -22 -9 -89 -15 -150 -19 -192
-56 -709 -66 -905 -31 -656 -31 -2194 0 -2845 18 -353 63 -936 96 -1235 6 -52
12 -113 14 -135 2 -22 9 -83 15 -135 7 -52 14 -111 16 -130 2 -19 9 -69 15
-110 6 -41 17 -127 25 -190 14 -108 30 -228 55 -400 6 -41 13 -86 14 -100 2
-14 9 -56 15 -95 20 -119 39 -237 51 -315 6 -41 18 -107 26 -147 8 -40 16 -87
19 -105 6 -42 23 -138 43 -243 6 -27 15 -77 21 -110 6 -33 16 -78 21 -100 5
-22 19 -89 30 -150 12 -60 23 -117 25 -125 2 -8 6 -28 10 -45 3 -16 10 -48 15
-70 5 -22 18 -85 30 -140 12 -55 28 -129 37 -164 8 -36 16 -72 18 -80 8 -39
46 -199 55 -231 6 -19 15 -55 20 -80 10 -49 32 -141 50 -205 12 -46 15 -56 28
-110 10 -39 59 -226 88 -335 8 -30 19 -68 24 -85 5 -16 16 -55 24 -85 25 -93
56 -202 78 -275 12 -38 23 -72 23 -75 1 -3 5 -18 9 -35 4 -16 11 -39 15 -50
18 -44 55 -171 53 -179 -2 -4 1 -13 6 -20 8 -9 16 -33 27 -76 6 -26 48 -160
55 -175 7 -17 21 -58 25 -75 1 -3 8 -25 15 -50 7 -25 14 -48 16 -52 1 -5 2 -9
3 -10 3 -5 101 -293 105 -308 2 -8 10 -28 16 -45 6 -16 13 -37 15 -45 2 -8 17
-51 33 -95 17 -44 45 -120 62 -170 18 -49 36 -99 40 -110 4 -11 47 -126 95
-255 48 -129 93 -248 100 -265 13 -31 27 -66 30 -75 1 -3 9 -23 18 -44 10 -22
20 -50 23 -63 4 -13 10 -26 15 -29 5 -3 9 -12 9 -20 0 -9 11 -40 25 -70 14
-30 25 -56 25 -59 0 -2 5 -16 12 -32 6 -15 12 -30 13 -33 0 -3 13 -31 28 -63
15 -32 27 -59 27 -62 0 -2 5 -16 12 -32 6 -15 12 -30 13 -33 1 -3 8 -18 15
-35 7 -16 14 -32 15 -35 5 -16 30 -72 55 -128 17 -35 30 -66 30 -69 0 -2 13
-33 29 -66 15 -34 32 -73 36 -87 4 -14 11 -29 15 -35 5 -5 27 -53 50 -105 23
-52 54 -122 70 -155 16 -33 49 -105 75 -160 25 -55 70 -149 98 -210 65 -136
377 -758 442 -880 26 -49 67 -126 90 -170 73 -136 107 -199 125 -230 10 -16
33 -59 53 -95 19 -36 49 -90 66 -120 18 -30 37 -67 44 -83 6 -15 15 -27 19
-27 4 0 8 -4 8 -9 0 -5 23 -49 51 -98 29 -48 63 -108 77 -133 13 -25 31 -52
38 -61 8 -8 14 -18 14 -21 0 -3 18 -36 40 -72 22 -36 40 -70 40 -76 0 -5 5
-10 10 -10 6 0 10 -6 10 -12 0 -7 18 -40 41 -73 22 -33 44 -69 50 -80 10 -22
31 -57 39 -65 3 -3 16 -27 30 -53 14 -27 33 -57 42 -67 10 -11 18 -23 18 -28
0 -5 18 -34 40 -66 22 -31 40 -58 40 -60 0 -2 24 -40 52 -84 51 -78 78 -119
145 -226 17 -28 37 -57 43 -63 6 -7 27 -41 47 -75 20 -35 39 -65 43 -68 3 -3
28 -39 55 -80 28 -41 52 -77 55 -80 3 -3 20 -27 38 -55 17 -27 36 -55 40 -61
10 -11 78 -110 182 -264 36 -52 69 -100 75 -106 5 -6 17 -22 25 -34 8 -12 23
-33 34 -47 55 -72 126 -175 126 -184 0 -5 3 -9 8 -9 4 0 23 -24 42 -52 34 -51
54 -78 75 -102 6 -6 28 -36 50 -66 22 -30 45 -62 52 -70 7 -8 26 -33 42 -55
17 -22 34 -44 38 -50 5 -5 42 -55 83 -110 41 -55 80 -104 85 -110 6 -5 31 -37
56 -70 24 -33 46 -62 49 -65 3 -3 30 -36 60 -75 30 -38 57 -72 60 -75 14 -13
78 -96 81 -105 2 -5 13 -19 24 -30 12 -11 52 -58 89 -105 37 -47 90 -110 117
-141 27 -31 65 -78 86 -104 20 -27 44 -56 52 -65 9 -9 39 -42 66 -74 354 -412
590 -674 906 -1005 234 -245 973 -978 1114 -1106 55 -49 159 -144 230 -210 72
-66 178 -160 235 -210 57 -49 111 -97 120 -105 8 -8 58 -51 109 -95 52 -44
115 -98 140 -120 68 -59 275 -233 346 -290 255 -207 623 -498 761 -602 262
-197 658 -486 789 -576 39 -27 115 -80 170 -118 158 -110 604 -406 805 -534
41 -26 86 -55 100 -64 14 -8 33 -20 42 -26 10 -5 86 -53 169 -105 84 -52 157
-97 163 -99 6 -2 41 -24 79 -48 37 -23 69 -43 71 -43 2 0 63 -36 136 -80 73
-44 133 -80 135 -80 1 0 42 -23 91 -51 49 -29 107 -62 129 -74 22 -13 84 -48
139 -79 54 -31 100 -56 102 -56 1 0 29 -15 61 -34 225 -131 979 -516 1358
-693 283 -133 305 -143 455 -210 360 -161 740 -321 1035 -437 94 -37 179 -71
190 -75 64 -27 478 -181 620 -230 50 -18 119 -43 155 -56 295 -109 1211 -397
1530 -481 30 -8 69 -19 85 -23 35 -10 170 -47 335 -90 99 -27 266 -68 505
-126 33 -8 110 -26 170 -40 61 -14 119 -28 130 -30 11 -3 115 -25 230 -50 116
-25 239 -52 275 -60 36 -7 117 -23 180 -35 63 -11 133 -25 155 -30 22 -5 56
-12 75 -15 19 -3 71 -13 115 -21 44 -8 118 -21 165 -29 47 -8 128 -21 180 -30
52 -9 136 -22 185 -30 50 -8 119 -19 155 -25 186 -30 366 -55 605 -85 66 -9
156 -20 200 -26 502 -64 1290 -128 1945 -159 582 -27 2058 -21 2535 10 579 39
678 46 900 65 289 25 641 61 820 85 39 5 126 16 195 24 208 26 510 69 610 86
25 4 90 15 145 23 171 27 228 36 285 47 30 5 93 16 140 24 178 32 667 127 800
156 19 4 82 17 140 29 123 26 218 47 460 105 221 53 439 107 550 137 172 45
301 80 335 90 17 4 55 15 85 23 154 41 489 139 715 209 238 74 861 282 920
307 11 4 49 18 85 30 36 12 74 26 85 30 11 5 166 63 345 130 179 67 339 128
355 136 17 7 55 22 85 34 30 11 64 25 75 30 11 5 72 30 135 55 63 25 124 50
135 55 11 5 49 21 85 36 36 14 83 34 105 44 22 10 78 34 125 55 47 20 99 43
115 50 17 7 68 30 115 50 350 154 938 436 1320 635 375 195 503 264 845 455
369 207 992 586 1325 805 74 49 142 93 150 97 15 7 225 148 350 235 36 24 110
75 165 113 55 38 118 81 140 97 50 36 248 179 293 210 18 13 41 30 51 38 11 8
63 47 116 85 86 63 386 288 442 333 12 9 45 35 73 57 54 42 249 196 310 245
91 73 221 179 264 215 130 107 425 357 495 420 31 28 88 77 126 110 38 33 95
83 125 110 30 28 75 68 100 90 344 297 1144 1086 1585 1561 66 71 138 148 160
171 22 23 63 68 90 99 28 32 77 88 110 124 66 73 132 147 325 370 30 35 62 71
70 80 8 8 31 36 50 60 18 25 46 59 61 75 30 33 76 88 154 183 28 34 53 62 58
62 4 0 7 5 7 11 0 6 6 16 13 23 6 7 28 33 47 56 19 24 43 52 53 62 9 10 17 20
17 23 0 5 24 37 50 64 8 9 28 35 45 56 16 22 34 45 40 51 12 14 30 38 265 344
64 83 82 107 93 120 7 8 30 40 52 70 22 30 44 60 50 66 5 6 18 22 27 35 10 13
37 51 61 84 23 33 101 141 172 240 70 99 131 182 134 185 4 3 32 43 63 90 31
47 63 94 72 105 8 11 44 63 78 115 35 52 65 97 68 100 3 3 17 23 30 45 13 22
27 42 31 45 3 3 14 19 23 35 9 17 25 41 35 55 22 30 177 269 211 325 13 22 27
42 30 45 8 7 320 508 320 514 0 3 20 37 45 75 25 38 45 74 45 80 0 6 5 11 10
11 6 0 10 7 10 15 0 8 5 15 10 15 6 0 10 6 10 13 0 7 25 52 55 101 30 48 55
90 55 94 0 4 20 40 45 80 25 40 45 74 45 77 0 2 14 28 31 57 40 66 54 93 170
306 18 31 36 62 41 68 5 7 29 52 54 100 24 49 66 130 93 179 66 125 204 391
261 505 62 123 194 394 195 400 0 3 22 50 49 105 107 223 126 263 126 268 0 3
18 45 41 94 22 48 49 106 59 128 10 22 32 70 49 107 17 37 31 69 31 72 0 3 11
29 25 58 24 52 44 99 129 308 24 58 53 125 64 150 11 25 32 77 47 115 15 39
33 84 41 100 7 17 24 59 37 95 14 36 31 79 38 95 7 17 13 32 14 35 5 15 19 49
31 77 8 17 14 35 14 40 0 6 7 24 16 42 9 17 17 37 18 44 3 14 14 44 27 72 5
11 18 47 29 80 12 33 25 69 30 80 17 42 82 220 84 230 2 11 43 129 56 160 9
20 23 65 25 75 0 3 3 10 6 15 4 6 10 24 14 40 5 17 9 32 10 35 3 9 17 45 25
65 11 27 50 146 55 166 2 8 10 31 17 50 8 18 16 39 17 44 1 6 7 28 13 50 6 22
12 42 12 45 1 3 9 25 18 50 16 43 60 184 64 205 1 6 11 37 22 70 11 33 27 87
37 120 9 33 24 80 32 105 8 25 16 50 17 55 14 55 19 72 24 85 3 8 6 20 7 25 0
6 9 37 19 70 37 124 81 280 91 323 6 22 24 93 30 112 10 34 27 98 40 150 7 30
19 72 25 94 6 21 13 46 15 55 2 9 8 36 15 61 26 104 42 168 50 210 5 25 14 61
20 80 11 38 50 203 56 235 2 11 8 38 13 60 12 48 32 141 56 250 9 44 21 100
27 125 5 25 11 54 13 65 2 11 9 45 15 75 7 30 13 64 15 75 2 11 9 43 15 70 5
28 17 88 26 135 9 47 20 108 26 135 5 28 11 59 13 70 1 11 8 49 15 85 7 36 14
74 15 85 2 11 9 49 15 85 7 36 14 76 16 90 2 14 8 52 14 85 5 33 17 103 25
155 8 52 19 127 26 165 6 39 13 81 14 95 2 14 9 57 15 95 11 68 21 140 55 405
9 69 21 159 26 200 5 41 12 93 14 115 2 22 9 85 15 140 12 106 13 108 30 280
31 308 53 593 80 1025 53 835 53 2213 0 3065 -33 533 -65 919 -110 1335 -15
136 -18 156 -29 245 -6 44 -17 134 -25 200 -9 66 -20 154 -26 195 -6 41 -13
89 -15 105 -2 17 -9 64 -15 105 -6 41 -13 86 -15 100 -1 14 -8 57 -14 95 -6
39 -18 111 -26 160 -26 164 -55 338 -85 500 -6 33 -13 71 -15 85 -2 14 -9 48
-15 75 -5 28 -17 86 -25 130 -18 95 -38 199 -55 275 -6 30 -13 64 -15 75 -2
11 -8 40 -13 65 -6 25 -18 81 -27 125 -24 109 -44 202 -56 250 -5 22 -11 49
-13 60 -4 25 -44 190 -55 230 -5 17 -19 75 -31 130 -12 55 -25 111 -30 125 -5
14 -12 39 -16 55 -19 78 -31 127 -64 250 -32 122 -48 182 -54 200 -2 6 -6 24
-11 40 -9 37 -27 100 -51 180 -10 33 -19 65 -19 70 -1 6 -4 17 -7 25 -4 8 -10
29 -14 45 -4 17 -8 35 -10 40 -5 20 -65 221 -86 290 -12 39 -23 72 -23 75 -7
31 -30 105 -44 145 -10 28 -28 84 -41 125 -12 41 -29 95 -38 120 -9 25 -17 47
-17 50 -1 9 -16 55 -25 75 -8 19 -77 225 -85 255 -2 8 -22 65 -43 125 -22 61
-42 117 -44 125 -3 8 -13 38 -23 65 -9 28 -19 57 -22 65 -3 8 -7 20 -8 26 -2
6 -10 27 -18 45 -8 19 -25 63 -37 99 -12 36 -26 74 -30 85 -8 19 -21 55 -25
65 -1 3 -7 19 -14 35 -7 17 -32 82 -56 145 -24 63 -49 129 -56 145 -7 17 -13
32 -14 35 -1 3 -9 22 -18 43 -9 21 -28 69 -41 105 -13 37 -30 81 -37 97 -7 17
-13 32 -14 35 -3 9 -36 83 -51 117 -8 17 -14 34 -14 38 0 3 -11 31 -25 61 -14
30 -25 57 -25 60 0 3 -11 30 -25 60 -14 30 -36 82 -50 117 -28 68 -28 67 -79
180 -20 42 -36 79 -36 82 0 2 -13 33 -29 67 -15 35 -38 86 -50 113 -12 28 -29
64 -36 80 -8 17 -32 68 -54 115 -21 47 -64 137 -94 200 -30 63 -79 165 -107
225 -70 147 -237 481 -290 580 -24 44 -73 139 -110 210 -91 176 -104 199 -113
206 -5 3 -8 9 -8 13 1 6 -21 51 -46 91 -6 11 -25 45 -41 75 -54 102 -67 125
-72 130 -3 3 -13 21 -24 40 -28 54 -67 123 -146 260 -40 69 -83 143 -95 165
-12 22 -54 93 -94 158 -39 65 -71 122 -71 128 0 5 -4 9 -9 9 -5 0 -11 8 -15
18 -3 9 -23 44 -44 77 -21 33 -78 125 -127 205 -50 80 -93 147 -97 148 -5 2
-8 10 -8 17 0 8 -6 20 -12 27 -15 15 -55 76 -89 133 -12 22 -26 42 -30 45 -3
3 -24 33 -45 67 -22 34 -69 106 -105 160 -36 54 -84 127 -107 163 -23 36 -47
71 -53 78 -5 7 -29 41 -51 75 -23 34 -44 64 -48 67 -4 3 -37 50 -73 105 -37
55 -71 105 -77 112 -13 15 -250 343 -270 373 -8 12 -37 50 -63 84 -27 33 -53
69 -59 79 -9 17 -28 43 -53 71 -6 6 -28 36 -50 66 -22 30 -48 63 -57 72 -10
10 -18 22 -18 26 0 4 -18 28 -40 52 -22 25 -40 51 -40 58 0 6 -4 12 -9 12 -4
0 -28 28 -52 61 -24 34 -51 69 -60 78 -9 9 -49 59 -90 111 -40 52 -76 97 -79
100 -3 3 -16 19 -28 35 -27 35 -65 82 -147 180 -33 40 -98 119 -145 175 -47
57 -103 124 -125 150 -22 25 -62 73 -90 105 -51 60 -96 111 -200 230 -33 37
-94 106 -135 153 -41 47 -90 101 -107 120 -18 19 -33 35 -33 37 0 2 -15 18
-32 37 -18 18 -85 89 -148 158 -338 365 -1092 1122 -1311 1316 -37 33 -125
113 -196 179 -108 100 -283 258 -369 332 -12 10 -65 56 -119 103 -189 164
-273 236 -375 320 -56 47 -122 102 -147 123 -91 76 -563 451 -678 537 -33 25
-66 50 -75 57 -30 24 -303 228 -330 248 -16 11 -97 70 -181 130 -142 103 -183
131 -306 218 -133 93 -239 165 -459 312 -238 158 -284 188 -459 300 -49 32
-101 65 -115 74 -14 8 -33 20 -42 26 -10 5 -57 35 -105 65 -48 30 -96 60 -106
65 -9 6 -108 65 -220 132 -185 111 -438 259 -562 328 -27 16 -97 54 -154 87
-58 32 -106 58 -109 58 -2 0 -34 17 -70 39 -249 144 -980 513 -1422 718 -291
135 -296 137 -390 178 -47 21 -107 48 -135 60 -27 12 -84 37 -125 55 -41 18
-88 38 -105 45 -16 8 -64 28 -105 45 -41 17 -84 35 -95 40 -11 5 -72 30 -135
55 -63 25 -124 50 -135 55 -11 5 -45 19 -75 30 -30 11 -64 25 -75 30 -11 5
-74 30 -140 55 -66 25 -129 50 -140 55 -11 5 -108 41 -215 80 -107 39 -204 75
-215 80 -11 5 -36 14 -55 20 -19 7 -105 37 -190 67 -590 209 -1338 439 -1895
583 -161 41 -471 119 -540 135 -33 8 -118 28 -190 45 -186 44 -199 47 -310 70
-95 20 -138 30 -230 51 -22 5 -65 13 -95 19 -30 5 -91 17 -135 26 -44 8 -114
22 -155 30 -41 8 -100 19 -130 25 -117 23 -458 81 -665 114 -49 8 -119 19
-155 25 -115 19 -388 57 -610 85 -63 8 -151 19 -195 25 -303 42 -917 99 -1505
140 -455 32 -2270 49 -2705 25z m3200 -10522 c14 -13 16 -27 10 -67 -47 -360
-65 -580 -71 -896 -9 -452 19 -1025 70 -1435 30 -241 81 -576 111 -725 3 -14
9 -50 15 -80 16 -86 18 -99 40 -205 12 -55 28 -129 37 -165 8 -36 16 -69 17
-75 58 -277 181 -731 307 -1135 17 -52 36 -115 44 -140 17 -56 110 -329 163
-475 170 -469 351 -909 583 -1415 46 -101 246 -499 607 -1210 243 -480 291
-590 333 -760 37 -151 50 -280 56 -530 7 -288 -16 -434 -109 -705 -82 -239
-288 -587 -482 -815 -67 -78 -396 -400 -465 -454 -252 -200 -449 -330 -761
-501 -234 -128 -538 -264 -555 -247 -3 3 -5 16 -5 29 0 26 42 70 264 277 301
281 573 718 669 1076 38 141 42 185 42 435 -1 217 -4 263 -22 350 -29 135 -45
181 -108 311 -105 216 -235 376 -690 844 -554 570 -758 818 -1077 1305 -318
488 -560 1013 -706 1535 -58 207 -106 425 -127 580 -2 8 -8 53 -14 100 -22
156 -26 233 -26 520 0 287 4 362 25 500 16 98 16 101 34 200 16 87 20 150 10
150 -77 0 -971 -798 -1405 -1254 -85 -89 -188 -200 -229 -246 -41 -47 -97
-110 -125 -140 -182 -203 -393 -469 -594 -750 -101 -141 -156 -223 -296 -440
-195 -302 -436 -786 -563 -1130 -85 -228 -170 -519 -201 -685 -26 -135 -50
-273 -56 -330 -30 -240 -39 -499 -26 -706 13 -205 14 -212 25 -299 49 -389
211 -898 386 -1211 59 -106 182 -292 256 -386 226 -289 444 -500 710 -686 93
-64 100 -72 110 -111 7 -28 6 -28 -27 -20 -19 4 -44 7 -57 6 -71 -5 -609 275
-887 461 -149 101 -297 228 -495 426 -231 232 -332 355 -494 601 -205 310
-336 575 -466 940 -39 110 -130 418 -145 488 -2 9 -9 40 -15 67 -90 380 -132
882 -110 1295 17 304 34 461 75 675 16 81 18 91 36 180 6 28 12 59 14 70 13
60 87 336 119 440 46 146 149 426 218 589 133 316 395 816 563 1076 365 565
597 874 1049 1394 227 262 678 721 1031 1051 227 212 531 476 837 727 164 135
216 176 297 239 45 35 120 93 165 128 79 61 367 277 494 370 35 25 76 55 90
67 31 24 83 61 337 236 199 137 730 486 812 533 10 6 44 27 76 48 109 71 215
124 249 127 4 0 14 -8 23 -17z m-2035 -10776 c61 -29 153 -103 187 -151 12
-17 32 -67 43 -111 19 -71 22 -125 30 -495 5 -228 9 -788 9 -1244 l1 -829 78
6 c163 13 539 58 757 91 275 42 366 56 495 80 244 45 310 59 423 91 90 26 704
182 743 189 11 2 48 11 80 20 32 9 100 25 149 36 50 12 137 32 195 46 319 76
394 93 525 118 445 83 773 74 969 -26 56 -29 163 -134 176 -173 40 -121 49
-325 60 -1275 12 -1126 11 -12094 -1 -13305 -5 -500 -9 -923 -9 -938 1 -65
-31 -198 -68 -290 -116 -281 -279 -469 -514 -590 -187 -98 -518 -182 -858
-221 -166 -19 -617 -35 -1050 -39 -462 -3 -4689 -3 -5085 1 -538 5 -899 29
-1150 75 -161 30 -374 89 -460 126 -186 82 -295 152 -403 261 -88 87 -133 151
-202 284 -70 134 -81 172 -106 376 -13 108 -17 463 -25 2580 -5 1350 -13 2579
-17 2730 -4 151 -4 354 1 450 4 96 11 2277 16 4845 7 4261 9 4680 24 4785 24
163 38 199 105 266 81 82 155 114 299 130 98 12 135 11 247 -1 166 -19 168
-19 346 -60 36 -8 86 -19 113 -25 26 -5 71 -17 101 -25 29 -9 62 -17 73 -19
25 -5 219 -57 503 -135 298 -82 540 -144 925 -236 55 -13 183 -40 285 -60 102
-20 214 -42 250 -50 70 -15 163 -31 220 -39 66 -9 165 -26 209 -36 75 -18 309
-38 493 -44 l176 -5 5 1237 c3 914 8 1251 17 1292 33 154 164 293 307 330 21
5 88 8 148 6 94 -3 118 -7 165 -29z"/>
</g>
</svg>
