<?xml version="1.0" encoding="utf-8"?>
<!-- Generator: Adobe Illustrator 26.0.3, SVG Export Plug-In . SVG Version: 6.00 Build 0)  -->
<svg version="1.1" id="layer" xmlns="http://www.w3.org/2000/svg" xmlns:xlink="http://www.w3.org/1999/xlink" x="0px" y="0px"
	 viewBox="0 0 652 652" style="enable-background:new 0 0 652 652;" xml:space="preserve">
<style type="text/css">
	.st0{fill:url(#SVGID_1_);}
	.st1{fill:#A0A8D4;}
	.st2{fill:url(#SVGID_00000046298155527570949370000013518611341792942220_);}
	.st3{fill:url(#SVGID_00000033370288559559824670000013959517523806713265_);}
</style>
<g>
	<g id="Layer_1">
		
			<linearGradient id="SVGID_1_" gradientUnits="userSpaceOnUse" x1="329.4503" y1="150.7662" x2="93.8616" y2="406.161" gradientTransform="matrix(1 0 0 1 -6 -141.75)">
			<stop  offset="0.58" style="stop-color:#A0A8D4"/>
			<stop  offset="0.73" style="stop-color:#8791C7"/>
			<stop  offset="0.91" style="stop-color:#6470B4"/>
		</linearGradient>
		<path class="st0" d="M109.6,264.2c6.4,13.7,22.4,40.9,22.4,40.9L315.5,1.7l-179.3,125c-10.6,7-19.3,16.8-25.5,28
			C94.2,189.1,93.9,229.2,109.6,264.2z"/>
		<path class="st1" d="M36.7,364c4.2,58.8,33.3,112.9,80.1,148.5L315,650.6c0,0-123.8-178.8-228.6-356.4
			c-10.6-18.8-17.7-39.2-21-60.5c-1.4-9.5-1.4-19.3,0-29.1c-2.8,5-8.1,15.4-8.1,15.4c-10.6,21.6-17.9,44.8-21.3,68.6
			C34.2,313.5,34.2,339,36.7,364z"/>
		
			<linearGradient id="SVGID_00000103223356886369273290000012387281574320211371_" gradientUnits="userSpaceOnUse" x1="334.2034" y1="784.9096" x2="569.8271" y2="529.5635" gradientTransform="matrix(1 0 0 1 -6 -141.75)">
			<stop  offset="0.58" style="stop-color:#A0A8D4"/>
			<stop  offset="0.73" style="stop-color:#8791C7"/>
			<stop  offset="0.91" style="stop-color:#6470B4"/>
		</linearGradient>
		<path style="fill:url(#SVGID_00000103223356886369273290000012387281574320211371_);" d="M542.2,388.1
			c-6.4-13.7-22.4-40.9-22.4-40.9L336.2,650.6l179-125c10.6-7,19.3-16.8,25.5-28C557.6,462.9,557.9,422.8,542.2,388.1z"/>
		<path class="st1" d="M615,288c-4.2-58.8-33.3-112.9-80.1-148.5L336.8,1.4c0,0,123.8,178.8,228.6,356.4
			c10.6,18.8,17.7,39.2,21,60.5c1.4,9.5,1.4,19.3,0,29.1c2.8-5,8.1-15.4,8.1-15.4c10.6-21.6,17.9-44.8,21.3-68.6
			C617.5,338.5,617.5,313.3,615,288z"/>
		
			<linearGradient id="SVGID_00000008114918292958072040000007765929045630690193_" gradientUnits="userSpaceOnUse" x1="332" y1="140.0934" x2="332" y2="794.3442" gradientTransform="matrix(1 0 0 1 -6 -141.75)">
			<stop  offset="0" style="stop-color:#513EFF"/>
			<stop  offset="0.18" style="stop-color:#5157FF"/>
			<stop  offset="0.57" style="stop-color:#5298FF"/>
			<stop  offset="1" style="stop-color:#52E5FF"/>
		</linearGradient>
		<path style="fill:url(#SVGID_00000008114918292958072040000007765929045630690193_);" d="M110.7,154.7c6.2-11.2,14.8-21,25.5-28
			l179-125L131.7,305.1c0,0-16-27.2-22.4-40.9C93.6,229.2,94.2,189.1,110.7,154.7z M36.7,364c4.2,58.8,33.3,112.9,80.1,148.5
			L315,650.6c0,0-123.8-178.8-228.6-356.4c-10.6-18.8-17.7-39.2-21-60.5c-1.4-9.5-1.4-19.3,0-29.1c-2.8,5-8.1,15.4-8.1,15.4
			c-10.6,21.6-17.9,44.8-21.3,68.6C34.2,313.5,34.2,339,36.7,364z M541.9,388.1c-6.4-13.7-22.4-40.9-22.4-40.9L336.2,650.6l179-125
			c10.6-7,19.3-16.8,25.5-28C557.3,463.1,557.9,423.1,541.9,388.1L541.9,388.1z M614.7,288.3c-4.2-58.8-33.3-112.9-80.1-148.5
			L336.8,1.7c0,0,123.8,178.8,228.6,356.4c10.6,18.8,17.7,39.2,21,60.5c1.4,9.5,1.4,19.3,0,29.1c2.8-5,8.1-15.4,8.1-15.4
			c10.6-21.6,17.9-44.8,21.3-68.6c2-25.2,2-50.4-0.6-75.6L614.7,288.3z"/>
	</g>
</g>
</svg>
