<svg id="Layer_1" data-name="Layer 1" xmlns="http://www.w3.org/2000/svg" viewBox="0 0 499.69 490.2"><defs><style>.cls-1{fill:#03dacc;}.cls-2{fill:#fefefe;}</style></defs><path class="cls-1" d="M199.69,355.34c12.51-5.51,24.74-11.82,37.65-16.14,5.5-1.84,17.07-1,17.81,1.23,2.59,7.88-5.3,11.87-11.25,15.17a86.91,86.91,0,0,1-50.38,11.06c-11.29,39.78-21.07,81-51.69,113.28a233.33,233.33,0,0,1-63.17-43.4C24.8,384.68-1,321.14.2,246.49,2,131.13,92.72,26.45,206.47,8.6,291-4.67,364.9,17.69,426.1,77.45c44.61,43.56,68.68,97.46,73.12,160,8.23,116.1-65.45,223.31-176.38,256.49-6.25,1.87-11,1.88-15.47-3.23s-8-10-4.92-17.2c6.77-15.62,14-31.09,20-47,5.36-14.17,9.2-28.92,14-43.3,1.73-5.15,3.5-10.69,6.83-14.77A19.38,19.38,0,0,1,355,362c16-1.79,32.18-2.24,48.22-3.83,13.67-1.35,17.82-6.31,17.62-20.38-.13-9.24-3.1-18.82,5.9-26.18.87-.7-.45-5.61-2-7.49-3.23-3.84-3.59-7.09.38-10.1,5.43-4.12,4.8-8.48,1.34-13.4-4-5.71-2.56-9,3.63-12.87,13.52-8.39,23.07-11.76,1.93-25.85-7.26-4.84-13.07-11.8-19.77-17.53-12.2-10.46-13.67-23.06-7.35-37,2.29-5.05,1.24-8.81-1.28-13.44-8.41-15.4-17.33-30.66-24-46.81-11.19-26.94-32.32-38-59.44-41.6-24.11-3.22-48.06-7.78-72.22-10.34a92.24,92.24,0,0,0-63.31,16.22c-16.12,11.22-30.7,24.76-45.31,38-6.74,6.09-13.07,11.85-22.59,12.38a4.89,4.89,0,0,0-2.66.51c-7.13,5.91-14.29,11.79-21.19,17.95-3.65,3.27-6.82,7.07-11,11.47L83.66,174c-3,2.71-6.11,5.41-9.1,8.25-9.9,9.38-16.36,19.9-14.93,34.6.84,8.65,2.48,17.87-4,26-2.28,2.87-4.17,8.14,1.84,11.49,1.61.9,1.8,4.92,2.07,7.56,1.29,12.82,7,22.61,19,28,6.91,3.09,9.5,8.3,10.74,15.57,1.86,10.91,3.7,22.4,17.33,25.95,1.81.47,3.38,3.35,4.32,5.44,3,6.66,5.59,13.48,8.32,20.24,5.1,12.59,13.45,21.51,27.14,24.82,2.83.69,5.31,2.75,8,4.11,8.49,4.3,17,8.57,26,13.09,3.32-13.89,6.4-25.61,8.69-37.47.42-2.16-1.86-5.42-3.75-7.33-11.46-11.56-18.59-25.6-23.05-40.94-1-3.64,1-8.19,1.65-12.32,3.87,2.21,9.34,3.46,11.31,6.79,6.9,11.71,12.6,24.12,19.35,37.44,3.27-12.75,11.64-22.84,7.35-38.13-4.45-15.88-4.61-33.06-5.68-49.74-.32-5.1-1.18-13.4,6.59-13.73,2.61-.11,7.21,7.54,8,12.15,2.35,13.34,3.24,26.93,4.83,41.5,5.39-8.51,10.51-16.27,15.2-24.27.92-1.57.19-4.1.22-6.19.29-16.41,0-32.86,1.2-49.2.48-6.33,4.14-12.58,7.15-18.47,1.09-2.15,4.48-3.13,6.81-4.65,1.07,2.36,3.12,4.75,3,7.07-.39,12.74-1.24,25.46-2.1,38.19-.2,3-1,5.88-.53,9.42,7.54-8.07,18.3-13.19,19.9-26,2.86-22.94,23.42-57.9,40.38-69.43,4.1,8.09.74,18.4-15.48,50.68,11.15-8.33,22-17.11,33.54-24.88,11.69-7.89,24.17-14.42,38.57-14.85l1.6,2.32c-2.25,2.47-4.12,5.53-6.82,7.31-17.81,11.64-35.81,23-53.74,34.47-3.84,2.46-7.65,5-11.47,7.45l-3.82,1.75.44,1.1,4.68-1.35c16.48-2.93,32.85-7.26,49.69-5l1,2.65c-2.44,1.84-4.72,4-7.36,5.47-17.67,10-36.64,14-56.95,13a18.2,18.2,0,0,0-12.31,4.8c-6.87,6.78-12.64,14.67-18.85,22.1-.3.61-.61,1.21-.91,1.82l2.17-.24c18.7-7.18,37.76-12,57.83-10.11l1.15,2.47a78.7,78.7,0,0,1-6.32,5.4c-18.1,12.5-38.17,18.68-60.17,17.59-5.27-.26-8.45,1.14-11,5.66-5.21,9.22-10.8,18.23-17.52,29.47,21.92-5.7,41.55-10.71,62.19-10.12-7.62,11.68-19.21,16.37-31.69,18.43-9.21,1.52-18.79.65-28.12,1.66-3.14.34-7.52,2.47-8.72,5-4,8.46-6.8,17.49-10.06,26.3l-1,1.28Zm47.05-104.16-1-1.16c-.34.43-1,.91-.94,1.28s.7.94,1.09,1.4Z" transform="translate(-0.16 -4.9)"/><path class="cls-2" d="M294.49,217.8l-4.68,1.35-.44-1.1,3.82-1.75Z" transform="translate(-0.16 -4.9)"/><path class="cls-2" d="M246.74,251.18l-.83,1.52c-.39-.46-1-.89-1.09-1.4s.6-.85.94-1.28Z" transform="translate(-0.16 -4.9)"/><path class="cls-2" d="M251,262.36l-2.17.24c.3-.61.61-1.21.91-1.82Z" transform="translate(-0.16 -4.9)"/><path class="cls-2" d="M199.69,355.34l-2.17.07,1-1.28A16.71,16.71,0,0,1,199.69,355.34Z" transform="translate(-0.16 -4.9)"/></svg>