<svg xmlns="http://www.w3.org/2000/svg" xmlns:xlink="http://www.w3.org/1999/xlink" id="Layer_1" x="0" y="0" version="1.1" viewBox="0 0 397.7 311.7" xml:space="preserve" style="enable-background:new 0 0 397.7 311.7"><style type="text/css">.st0{fill:url(#SVGID_1_)}.st1{fill:url(#SVGID_2_)}.st2{fill:url(#SVGID_3_)}</style><linearGradient id="SVGID_1_" x1="360.879" x2="141.213" y1="351.455" y2="-69.294" gradientTransform="matrix(1 0 0 -1 0 314)" gradientUnits="userSpaceOnUse"><stop offset="0" style="stop-color:#00ffa3"/><stop offset="1" style="stop-color:#dc1fff"/></linearGradient><path d="M64.6,237.9c2.4-2.4,5.7-3.8,9.2-3.8h317.4c5.8,0,8.7,7,4.6,11.1l-62.7,62.7c-2.4,2.4-5.7,3.8-9.2,3.8H6.5	c-5.8,0-8.7-7-4.6-11.1L64.6,237.9z" class="st0"/><linearGradient id="SVGID_2_" x1="264.829" x2="45.163" y1="401.601" y2="-19.148" gradientTransform="matrix(1 0 0 -1 0 314)" gradientUnits="userSpaceOnUse"><stop offset="0" style="stop-color:#00ffa3"/><stop offset="1" style="stop-color:#dc1fff"/></linearGradient><path d="M64.6,3.8C67.1,1.4,70.4,0,73.8,0h317.4c5.8,0,8.7,7,4.6,11.1l-62.7,62.7c-2.4,2.4-5.7,3.8-9.2,3.8H6.5	c-5.8,0-8.7-7-4.6-11.1L64.6,3.8z" class="st1"/><linearGradient id="SVGID_3_" x1="312.548" x2="92.882" y1="376.688" y2="-44.061" gradientTransform="matrix(1 0 0 -1 0 314)" gradientUnits="userSpaceOnUse"><stop offset="0" style="stop-color:#00ffa3"/><stop offset="1" style="stop-color:#dc1fff"/></linearGradient><path d="M333.1,120.1c-2.4-2.4-5.7-3.8-9.2-3.8H6.5c-5.8,0-8.7,7-4.6,11.1l62.7,62.7c2.4,2.4,5.7,3.8,9.2,3.8h317.4	c5.8,0,8.7-7,4.6-11.1L333.1,120.1z" class="st2"/></svg>