<svg id="Layer_1" data-name="Layer 1" xmlns="http://www.w3.org/2000/svg" viewBox="0 0 433.26 443.05"><defs><style>.cls-1{fill:#5492f6;}.cls-2{fill:#5493f6;}.cls-3{fill:#0e3ca5;}.cls-4{fill:#0525a2;}.cls-5{fill:#0a29a7;}.cls-6{fill:#680303;}.cls-7{fill:#f6f5f5;}.cls-8{fill:#c4c3c3;}.cls-9{fill:#c31515;}.cls-10{fill:#e1e0e1;}.cls-11{fill:#d52727;}.cls-12{fill:#c91c1c;}.cls-13{fill:#a50505;}.cls-14{fill:#b00d0d;}.cls-15{fill:#eaeaea;}.cls-16{fill:#f0f0f0;}.cls-17{fill:#da2d2d;}.cls-18{fill:#d2d2d2;}.cls-19{fill:#1030ad;}.cls-20{fill:#1c3bb9;}.cls-21{fill:#1939b7;}.cls-22{fill:#dd3030;}.cls-23{fill:#1736b4;}.cls-24{fill:#1333b1;}.cls-25{fill:#e6e6e6;}.cls-26{fill:#7a0000;}.cls-27{fill:#cf2121;}.cls-28{fill:#fdfcfc;}.cls-29{fill:#223fba;}</style></defs><path class="cls-1" d="M326.56,40.16c8.74,6.32,16.32,13.91,23.47,21.92a193.37,193.37,0,0,1,38.12,63.06c3.25,8.94,5.48,18.25,8.17,27.39l-10.95,1.59c-9.42,1.46-18.87,2.83-28.28,4.4-19,3.18-37.93,6.53-56.91,9.71-14.87,2.48-29.75,4.8-44.63,7.2-4.58.62-9.17,1.22-13.75,1.86-4.34.61-8.68,1.26-13,1.89-4.06.46-8.13.89-12.19,1.41-4.35.55-8.7,1.18-13.05,1.78l-20.79,2-18.51,1.52q-15.81.9-31.64,1.82a13.73,13.73,0,0,0-2.05.46.23.23,0,0,1,0-.28c-.95-1.23-1.8-2.53-2.85-3.66-6.75-7.23-12.41-15.18-16-24.46a49,49,0,0,1,1.79-40.65c.35-.69.59-1.44.89-2.16.53-.77,1.11-1.52,1.59-2.33a88.46,88.46,0,0,1,16.87-20.06c12.63-11.43,27-20.28,42.18-27.84a316.91,316.91,0,0,1,71.57-25.64c11.42-2.58,23-4.57,34.62-6.08,6.57-.85,13.34-.32,20-.16A61.09,61.09,0,0,1,324.68,40,6.08,6.08,0,0,0,326.56,40.16Z"/><path class="cls-2" d="M88.33,362C1.59,302.66-15.75,199.56,12.48,126.44c2.22,2.81,4.28,5.54,6.45,8.17C30,148,41.29,161.24,52.11,174.83,65,191,75.83,208.56,86.85,226c.54.86,1.21,1.64,1.82,2.45l.06,46.92q0,18.6.07,37.2,0,8.76,0,17.53v17.58c0,2.75,0,5.51-.09,8.26C88.67,357.94,88.47,359.94,88.33,362Z"/><path class="cls-3" d="M326.56,40.16a6.08,6.08,0,0,1-1.88-.13,61.09,61.09,0,0,0-23.41-5.14c-6.68-.16-13.45-.69-20,.16-11.61,1.51-23.2,3.5-34.62,6.08a316.91,316.91,0,0,0-71.57,25.64c-15.17,7.56-29.55,16.41-42.18,27.84A88.46,88.46,0,0,0,116,114.67c-.48.81-1.06,1.56-1.59,2.33-5-4-10.22-7.9-15.09-12.12-5.16-4.47-9-10.1-12.41-16,6.27-3.35,12.63-6.55,18.8-10.08,11.45-6.56,22.18-14,31.2-23.88,4.7-5.11,8.62-10.58,10.68-17.2,2.82-9.09.5-16.38-9.38-19.91-1.76-.63-3.6-1-5.4-1.56,6.37-2.49,12.59-5.54,19.15-7.35C162.11,6.14,172.41,3.8,182.77,2,190.08.75,197.6.6,205.05.2a93.9,93.9,0,0,1,13.73.1c8.6.8,17.2,1.79,25.74,3.13a150.82,150.82,0,0,1,36.59,10.62,231.82,231.82,0,0,1,23.83,11.86C312.4,30.21,319.37,35.37,326.56,40.16Z"/><path class="cls-2" d="M132.82,16.28c1.8.52,3.64.93,5.4,1.56,9.88,3.53,12.2,10.82,9.38,19.91-2.06,6.62-6,12.09-10.68,17.2-9,9.83-19.75,17.32-31.2,23.88-6.17,3.53-12.53,6.73-18.8,10.08-15.07,6.77-30.44,12.79-46.61,16.35-5.81,1.28-11.83,1.55-17.76,2.24a7.46,7.46,0,0,1-1.86-.34c.67-1.44,1.21-2.73,1.85-4,17.72-33.59,42.77-60.3,75.4-79.76a53.17,53.17,0,0,1,33.23-7.16C131.71,16.33,132.27,16.28,132.82,16.28Z"/><path class="cls-4" d="M88.8,312.56q0-18.6-.07-37.2l-.06-46.92q0-13.23,0-26.48c0-7.59,5.14-13,12.71-13.28,3.85-.14,7.71,0,11.57,0l.57,18.21c-.43,3.51-2,5.68-6.37,5.13,4.31,1.51,4,4.28,2.2,7.8L113,217.4q.3,7,.59,14.1c-.4,3.56-1.85,5.88-6.57,5,4.5,1.52,4.29,4.3,2.39,7.94l3.56-2.4q.31,7.08.62,14.17c-.52,1.48-.65,3.39-1.68,4.3s-2.82.5-3.63.61c.81,1,2.31,2.1,2.56,3.42s-.79,2.81-1.34,4.42l3.45-2.27q.3,7.07.61,14.13c-.51,3.38-1.88,5.79-6.33,5,4.19,1.63,4.07,4.35,2.14,8l3.56-2.5.12,20.79-3.33.31Zm7.54-11.32c-.46,1.56-.9,3-1.46,4.91l4.2-2.9,3.71,2.55.78,0c-2.69-3.53-1.52-5.88,1.6-7.78h-4.36l-1.66-4.46c-.58,3.84-2.64,5.36-6.35,5Zm2.72-96.59,3.69,2.56c-1.72-3.42-.65-5.81,2.4-7.72h-4.41L99.15,195c-.37,3.94-2.58,5.3-6.3,5l3.51,2.69-1.45,4.88Zm3.62,27.18.64-.09c-2.23-3.33-1.39-5.71,1.81-7.53h-4.36l-1.64-4.57c-.47,3.82-2.52,5.45-6.37,5l3.6,2.77c-.48,1.61-.9,3.06-1.45,4.91l4.16-3Zm.1,49.28c-1.74-3.4-.71-5.85,2.76-7.79-4.55,1.6-5.67-1.2-6.6-4.54-.38,3.94-2.35,5.61-6.1,5.18l3.51,2.66-1.41,4.89L99,278.57ZM99.06,244c-.65,1.72-.82,3.66-1.86,4.49s-2.88.39-4.68.53L96.37,252l-1.5,4.9,4.15-3,3.78,2.55c-1.67-3.31-.88-5.78,2.23-7.71h-4.29C100.19,247.21,99.66,245.74,99.06,244Z"/><path class="cls-5" d="M113.51,280.78q-.3-7.06-.61-14.13a5,5,0,0,1,1.94.08,18.44,18.44,0,0,1,2.61,1.73c-2-3.56-.34-5.78,2.31-7.86h-4.25c-.7-1.59-1.34-3-2-4.43q-.3-7.08-.62-14.17a5.37,5.37,0,0,1,2,.12,21.59,21.59,0,0,1,2.86,1.9c-.45-1.94-1.33-3.54-1-4.74s2-1.94,3.45-3.16h-4.69c-.72-1.65-1.37-3.13-2-4.62q-.3-7-.59-14.1a5.42,5.42,0,0,1,1.94.07,18.25,18.25,0,0,1,2.55,1.66c-1.82-3.55-.52-5.79,2.79-7.68-4.18,1.13-5.72-.94-6.35-4.27,0-.12-.21-.22-.32-.33L113,188.64l17.57-.71a.23.23,0,0,0,0,.28q-.36,4.75-.74,9.49L128.44,194c-.65,1.67-.83,3.56-1.87,4.43s-2.86.57-4.61.82l3.75,2.8-1.41,4.89,4.2-3,2.52,1.9c-.16,4.25-.27,8.49-.5,12.73a29.21,29.21,0,0,1-.72,3.89l-1.29-3.57c-.39,3.94-2.56,5.41-6.59,5,3.92,1.6,4.17,4.2,2,7.94l4.61-3.24,2.48,1.92c-.16,4.32-.27,8.65-.5,13a24.75,24.75,0,0,1-.71,3.65c-.44-1.18-.87-2.36-1.31-3.53-.17,4.19-2.82,5.1-6.55,5,4,1.56,4.1,4.14,2,7.78l4.62-3.17,2.48,1.93c-.15,4.33-.27,8.65-.5,13a26.08,26.08,0,0,1-.7,3.65c-.44-1.2-.89-2.4-1.63-4.38-.3,4.41-2.08,6.35-6.34,5.67,4,1.64,4.19,4.32,2.89,7.56l3.76-2.81,2.53,2c-.16,4.35-.28,8.7-.51,13.05a24,24,0,0,1-.7,3.61c-.44-1.21-.87-2.42-1.31-3.64-.46,3.8-2.56,5.41-6.63,5,4.2,1.64,4.05,4.31,2.73,7.49l3.91-2.85,2.52,2c-.16,2.38-.31,4.75-.47,7.12l-17.57.61-.12-20.79a5.08,5.08,0,0,1,2,.08,18.58,18.58,0,0,1,2.61,1.75c-1.67-3.45-.77-5.83,3.27-7.62-2.37-.12-4.21.32-5.16-.4s-1.15-2.66-1.7-4C113.82,280.92,113.63,280.86,113.51,280.78Z"/><path class="cls-6" d="M148.57,420.66l-4.7,0h-.55c-3.39,0-6.77-.1-10.15-.13-10.31-.08-20.63,0-30.93-.32-2.3-.07-4.58-1.22-6.86-1.87,0-.5,0-1,0-1.5,2.82.49,5.64,1.34,8.48,1.38,5.87.09,11.76-.25,17.64-.41,4.48-.14,9-.22,13.43-.45,4.86-.24,9.71-.61,14.56-.92l6.17-.09a9.21,9.21,0,0,0,2.42.49c8.22-.57,16.44-1.13,24.64-1.85q14.52-1.29,29-2.84c11.06-1.21,22.11-2.59,33.17-3.9l12.55-1.81,21.69-3.14,21.69-3.15,2.87,1.37V415l-14.7,1c-3.06.14-6.11.31-9.17.44-7.93.33-15.86.69-23.8.95-7.09.23-14.18.36-21.27.46-1.33,0-1.94.42-1.77,1.77-6.15.16-12.29.41-18.44.47-21.24.18-42.48.28-63.72.43C150.12,420.46,149.34,420.59,148.57,420.66Z"/><path class="cls-7" d="M425.71,397.9c0,7,.14,13.92-.07,20.87a12.86,12.86,0,0,0,2.46,8.37c.82,1.13,1.25,2.55,2,3.71,1.48,2.18.69,4.32-.59,5.92-1.93,2.42-4.3,4.45-7.86,4.36-1.49,0-3,.82-4.48,1-2.33.21-4.67.17-7,.2-.54,0-1.13-.3-1.61-.17-7.95,2.1-15.88,0-23.81-.07-3.57,0-7.16-.25-10.73-.53q-10.55-.84-21.1-1.84c-6.24-.59-12.48-1.28-18.72-1.95l-26-2.79c-6.24-.66-12.49-1.27-18.72-2-6.7-.73-13.39-1.58-20.1-2.28-5.61-.58-11.26-.91-16.88-1.53-4.31-.48-8.59-1.24-12.89-1.87v-.95h1.9l1.43.94,2.37-.48h.47l2.85.95,3.32-.47,3.8.94h3.32l2.37.47h7.59c.53,1.46,1.42,1.12,2.37.47h2.85c1.07,1.75,2.45,1,3.8.47h1.42c1.42,1.82,3.1,1,4.75.48h1.42c.3.3.57.85.89.88q8.08.81,16.18,1.48c4.55.38,9.1.66,13.64,1,7.43.6,14.86,1.26,22.3,1.82,3.45.26,6.91.33,10.37.55,6.5.42,13,1.1,19.51,1.29,5.31.15,10.63-.26,15.95-.4,2-.05,4.08.25,6-.14,5.34-1.06,10.63-2.32,15.91-3.66a8.78,8.78,0,0,0,6.87-9c0-5.78,0-11.55,0-17.32a29.48,29.48,0,0,0-.45-3.49Z"/><path class="cls-8" d="M148.57,420.66c.77-.07,1.55-.2,2.32-.21,21.24-.15,42.48-.25,63.72-.43,6.15-.06,12.29-.31,18.44-.47a2.6,2.6,0,0,0,.47.09c15.42-.48,30.84-.93,46.26-1.48,3.1-.11,6.19-.59,9.28-.91h3.28l1,0c.78,0,1.57.13,2.35.09q14.24-.74,28.47-1.51c0,1.89,0,3.79,0,5.68,0,2.49-1,3.79-3.49,3.82q-11.42.15-22.83,0c-8.47-.07-16.92-.25-25.38-.77-4.57-.28-9.19.19-13.79.32H252l-2.39-.45L237.79,424a37.25,37.25,0,0,0-5.2-.83c-2.69-.05-5.39.22-8.08.35h-1c-.15-.26-.3-.75-.44-.75-2.86.06-5.72.18-8.57.29l-2.87.06-2.36-.05c-.52-.32-1-.87-1.55-.92-1.39-.1-2.79,0-4.19,0l-1.91.09-7-.08-2.44,0-5.71.08-2.85,0-5.23-.38-1.83-.1-1-.06-5.73-.23-7.51-.11-2,0c-3.13-.06-6.26-.09-9.39-.19A16,16,0,0,1,148.57,420.66Z"/><path class="cls-9" d="M425.71,397.9l-12.81,5.29-10.45,2.63L402,404c2.27-.63,4.55-1.25,6.81-1.89,6.07-1.7,12.2-3.38,17.35-7.19a11,11,0,0,0,3.67-4.72c1.12-3-1.2-5.24-5.47-6.12-6.25-1.3-12.57-.85-18.8-.33-8.43.72-16.83,2-25.22,3.18-9.55,1.39-19.08,2.94-28.61,4.49q-16.4,2.67-32.76,5.46c-6,1-12,2.13-18.05,3.2l-21.69,3.15-21.69,3.14L245,408.22c-.18-.45-.35-.9-.52-1.35,2.21-.39,4.4-.8,6.61-1.16,6.48-1,13-2,19.45-3.1,4.45-.74,8.88-1.56,13.32-2.35,1-.1,2-.16,3-.32q9.18-1.49,18.35-3c9.83-1.65,19.65-3.34,29.47-5,8.74-1.49,17.47-3,26.22-4.47,6.73-1.14,13.46-2.22,20.2-3.33L392,382.69c2.55-.32,5.1-.76,7.67-.9,1.47-.08,1.86-.59,1.85-2-.06-5.19,0-10.38,0-15.58l5.2-.66,5.71-.15q0,6.36,0,12.72c0,4.66,0,4.66,4.75,4.66,1.39.16,2.78.29,4.17.48,1.92.27,2.58-.45,2.53-2.45-.13-4.93,0-9.86,0-14.8l2.32.23,1.07.58c0,4.81,0,9.62-.16,14.42-.08,2,.4,3.36,2.43,3.9l3.27,3.33c.83,4.45-1.6,7.3-4.8,9.75C427.24,396.82,426.47,397.35,425.71,397.9Z"/><path class="cls-9" d="M88.82,383.1q0-8.76,0-17.53l15.68-.41,16.12-.1q0,8.63,0,17.24l-11.87.56Z"/><path class="cls-9" d="M121.54,417.78c-5.88.16-11.77.5-17.64.41-2.84,0-5.66-.89-8.48-1.38L91,413.69l.05,0-.35-.63h0l-.47-1c-2.09-3.6-1.43-7.53-1.41-11.38,3.84,0,7.68,0,11.52,0,2.8,0,5.6-.25,8.4-.38l12.82-.05Q121.53,409,121.54,417.78Z"/><path class="cls-10" d="M108.71,400.33c-2.8.13-5.6.33-8.4.38-3.84.07-7.68,0-11.52,0l0-17.64,19.9-.24Z"/><path class="cls-10" d="M104.45,365.16l-15.68.41c-.14-1.21-.29-2.41-.44-3.62.14-2,.34-4,.4-6,.08-2.75.06-5.51.09-8.26h15.63Z"/><path class="cls-11" d="M385.37,154.12l10.95-1.59,1.39.09v17.46l-.52.35-11.76,1.33Z"/><path class="cls-12" d="M397.71,170.08V152.62l8.54-.84q0,8.72,0,17.44a1.88,1.88,0,0,0,0,.33Z"/><path class="cls-13" d="M417.17,151.68l6.64.39q0,8.81,0,17.61a.59.59,0,0,0-.45,0l-6.19-.49.05-.2Z"/><path class="cls-9" d="M406.27,169.22q0-8.72,0-17.44l6.17-.14V169Z"/><path class="cls-14" d="M412.42,169V151.64l4.75,0,0,17.31Z"/><path class="cls-15" d="M432,280.12a10.49,10.49,0,0,0-.59,2.38c-.06,4.64,0,9.27-.05,13.9l-.94-.49-3.23-1.65a.73.73,0,0,0-.11-.29,13,13,0,0,0,.48-2.44c.05-4.1,0-8.2.05-12.3a11.64,11.64,0,0,1,.55-2.41l.84.07Z"/><path class="cls-14" d="M423.79,169.68q0-8.81,0-17.61l3.42.69q-.08,8.75-.14,17.49l-.91,0Z"/><path class="cls-12" d="M427.09,170.25q.07-8.75.14-17.49l3.25,1.62c0,2.27,0,4.55,0,6.83-.11,3.43-.3,6.87-.46,10.3l-.9-.23Z"/><path class="cls-11" d="M431.32,331.6c.53,1.92,1.4,3.81,1.5,5.75.23,4.52.1,9.06.11,13.6l-2.77-2.52-1.79-1.21a7.72,7.72,0,0,0,1.08-2.56c.11-4.68.05-9.37,0-14.05Z"/><path class="cls-11" d="M431.39,190.52c.5,1.54,1.37,3.07,1.43,4.62.16,4.94,0,9.9,0,14.85l-3.8-3.35a1.87,1.87,0,0,1-.13-.4,10.75,10.75,0,0,0,.57-2.37c.06-3.9,0-7.8.07-11.71a8,8,0,0,1,.75-2.25Z"/><path class="cls-11" d="M432.78,386.49l-3.27-3.33c0-2.45-.07-4.9,0-7.34.09-3.22.29-6.44.45-9.66l1.42.89c.49,1.3,1.36,2.59,1.39,3.9C432.92,376.13,432.8,381.31,432.78,386.49Z"/><path class="cls-11" d="M432,280.12l-3-3.23a13.78,13.78,0,0,0,.47-2.42c0-3.82,0-7.64.06-11.46a9.14,9.14,0,0,1,.8-2.49l1.08.63c.49,1.62,1.32,3.23,1.4,4.87.21,4.16.1,8.34,0,12.5C432.84,279.06,432.3,279.59,432,280.12Z"/><path class="cls-11" d="M431.33,225.78c.52,1.68,1.42,3.34,1.49,5,.19,4.76,0,9.53,0,14.3l-.45-.07-2.83-2.85-.09-.38q0-8.37,0-16.73Z"/><path class="cls-15" d="M431.39,367.05l-1.42-.89-1-.81c0-4.78,0-9.57.13-14.35a8,8,0,0,1,1.09-2.57l2.77,2.52.33.58c-2.21,1.05-1.27,3.06-1.37,4.7C431.66,359.83,431.55,363.44,431.39,367.05Z"/><path class="cls-15" d="M431.39,190.52l-1.1-.61-1.35-1.08.14-17.55.9.23,3,2.89.19,1c-2.21-.1-1.71,1.54-1.72,2.77C431.38,182.32,431.39,186.42,431.39,190.52Z"/><path class="cls-15" d="M431.32,331.6l-1.83-1-.5-.5c0-5,0-9.93.06-14.89a9.76,9.76,0,0,1,.62-2.37l3.2,2.95.29,1c-2.52,0-1.7,1.94-1.74,3.23C431.32,323.9,431.35,327.75,431.32,331.6Z"/><path class="cls-16" d="M429.57,242.19,432.4,245c0,.32,0,.63,0,.94-.34.68-1,1.35-1,2-.09,4.38,0,8.76,0,13.14l-1.08-.63-1.78-1.27a28,28,0,0,0,.44-3.49c.06-3.71,0-7.43.05-11.14A12.41,12.41,0,0,1,429.57,242.19Z"/><path class="cls-16" d="M431.33,225.78l-1.8-.7-.5-.94v-17.5l3.8,3.35a1,1,0,0,1,0,.34l-.13.15c-.44.77-1.24,1.53-1.27,2.31C431.31,217.12,431.35,221.45,431.33,225.78Z"/><path class="cls-17" d="M432.94,174.4l-3-2.89c.16-3.43.35-6.87.46-10.3.07-2.28,0-4.56,0-6.83,1.91,1,2.42,2.72,2.42,4.72C432.9,164.2,432.93,169.3,432.94,174.4Z"/><path class="cls-17" d="M432.87,315.8l-3.2-2.95c0-.14-.08-.27-.13-.4a8.58,8.58,0,0,0,.87-2.45c.08-4.7,0-9.39,0-14.09l.94.49c.51,1.69,1.39,3.36,1.46,5.06C433,306.24,432.88,311,432.87,315.8Z"/><path class="cls-16" d="M194.66,422.19l7,.08c.19,1.41.88,1.58,2,.79l2.41.1c-.49.43-1,1.24-1.49,1.23-3,0-5.95-.22-8.91-.48-.37,0-.69-.79-1-1.21Z"/><path class="cls-15" d="M232.57,426.36H230.2l-2.38-.46H224.5c0-.31,0-.63,0-.94l5.72,0h.94c1.84.16,3.69.26,5.51.52a8.63,8.63,0,0,1,2.09.9h-6.18Z"/><path class="cls-18" d="M214.54,423.05c2.85-.11,5.71-.23,8.57-.29.14,0,.29.49.44.75l-2.36.48-2.85.45-1.44,0-2.37-.49C214.54,423.68,214.54,423.36,214.54,423.05Z"/><path class="cls-16" d="M186.51,422.24l5.71-.08.52.5C191.05,424.1,187.35,423.85,186.51,422.24Z"/><path class="cls-14" d="M91,413.69l4.46,3.12c0,.5,0,1,0,1.5Z"/><path class="cls-16" d="M178.43,421.82l5.23.38a30.08,30.08,0,0,1-3.94.76C179.32,423,178.86,422.22,178.43,421.82Z"/><path class="cls-16" d="M169.88,421.43l5.73.23c0,.16,0,.31,0,.46C173.65,422.4,171.56,423.64,169.88,421.43Z"/><path class="cls-15" d="M218.34,424.44l2.85-.45,2.37.95-1,.47h-4.26Z"/><path class="cls-18" d="M206,423.16l-2.41-.1c0-.29,0-.58-.05-.88,1.4,0,2.8-.14,4.19,0,.53.05,1,.6,1.55.92l-.5.15Z"/><path class="cls-7" d="M208.81,423.21l.5-.15,2.36.05.94.87-.93.48C210.69,424.12,209,425.32,208.81,423.21Z"/><path class="cls-7" d="M232.57,426.36h3.33C234.67,427.67,233.8,427.67,232.57,426.36Z"/><path class="cls-7" d="M227.82,425.89l2.38.46C229.25,427,228.36,427.34,227.82,425.89Z"/><path class="cls-7" d="M222.6,425.41l1-.47h.93v.94Z"/><path class="cls-10" d="M212.61,424l-.94-.87,2.87-.06c0,.31,0,.63,0,.94l-.91,0Z"/><path class="cls-18" d="M192.74,422.66l-.52-.5,2.44,0-.06.51Z"/><path class="cls-7" d="M218.34,424.44v1c-1.31,1-1.4.06-1.44-.92Z"/><path class="cls-16" d="M160.41,421.3l2,0C161.71,422.46,161.05,422.46,160.41,421.3Z"/><path class="cls-16" d="M212.61,424l1,0-1.94.43Z"/><path class="cls-7" d="M237.78,426.36h1v.95Z"/><path class="cls-18" d="M432.41,246c0-.31,0-.62,0-.94l.45.07.35,1Z"/><path class="cls-18" d="M175.63,422.12c0-.15,0-.3,0-.46l1,.06Z"/><path class="cls-16" d="M238.74,427.3v-.95h.95v.95Z"/><path class="cls-14" d="M90.2,412.12l.47,1Z"/><path class="cls-8" d="M143.32,420.63h0Z"/><path class="cls-14" d="M90.66,413.08l.35.63Z"/><path class="cls-10" d="M432.86,210.33l.18.32a3.07,3.07,0,0,0-.31-.17Z"/><path class="cls-19" d="M129.8,222.38a29.21,29.21,0,0,0,.72-3.89c.23-4.24.34-8.48.5-12.73l1.86.65c-2.75-3.66-1.07-5.87,2.38-7.83a23.42,23.42,0,0,1-3.41,0,9.73,9.73,0,0,1-2-.84q.38-4.74.74-9.49a13.73,13.73,0,0,1,2.05-.46q15.82-.93,31.64-1.82V196.7c-4.78.1-4.78.1-6.2-3.85,0-.08-.18-.12-.6-.37,0,3.92-2.15,5.58-6.16,5.35,4.15,1.46,3.95,4.15,2.1,7.79l4.28-3.31,4.34,2.56L160.45,200l2.7-2c.36.74,1,1.48,1,2.22.08,7,0,14.08,0,21.12a10.3,10.3,0,0,0-2.36.06c-2,.49-2.91-.35-3.29-2.23a18.23,18.23,0,0,0-1-2.5c-.64,2.07-1.11,3.61-1.55,5.05l-4.47.52c4.08,1.69,3.56,4.47,2.25,7.56l3.75-2.85c.85.46,1.54.81,2.21,1.19s1.22.73,2,1.2c-1.28-5-1.28-5,1.85-7.12a11.49,11.49,0,0,1,.55,2.41c0,7.11,0,14.22,0,21.34a12.37,12.37,0,0,0-2.36.08c-1.94.43-2.95-.29-3.3-2.22a12.87,12.87,0,0,0-.83-2.15l-.58,0c.36,4.25-1.93,5.56-5.93,5.33,4.17,1.46,3.91,4.24,2.64,7.57,2.56-3.23,5.11-3.34,8-.52-1.36-3.07-1.85-5.68,1.75-7.15a9.79,9.79,0,0,1,.59,2.37c0,7.15,0,14.3,0,21.44-3.47.7-5.81-.34-6.45-4.5-.63,1.78-.76,3.72-1.8,4.59s-2.9.54-4.41.74c3.74,1.64,3.8,4.27,2.44,7.5l3.77-2.84,4.05,2.46c-1.26-5.09-1.26-5.09,2.37-7.59q0,12.15,0,24.3c-3.49.74-5.72-.49-6.61-4.31-.33,3.78-2.25,5.66-6.39,5.2,4.07,1.5,4.08,4.13,2.62,7.49,2.6-3.33,5.2-2.85,8-.25-1.36-5.31-1.36-5.31,2.31-7.77q0,6.88.05,13.77l-9.94,1-23.79,1.17.06-.2c.16-2.37.31-4.74.47-7.12l1.48.56c-.53-1.67-1-3.13-1.43-4.57l4.12-3.34a20.37,20.37,0,0,1-3.27.17,9.78,9.78,0,0,1-2.12-.8,24,24,0,0,0,.7-3.61c.23-4.35.35-8.7.51-13.05l1.76.59c-2.47-3.56-1.23-5.89,2.62-7.76a27,27,0,0,1-3.54,0,9.61,9.61,0,0,1-2.05-.81,26.08,26.08,0,0,0,.7-3.65c.23-4.33.35-8.65.5-13l1.8.65c-2.46-3.53-1.36-5.9,2.52-7.78a27.66,27.66,0,0,1-3.71,0,6.82,6.82,0,0,1-1.82-.85,24.75,24.75,0,0,0,.71-3.65c.23-4.32.34-8.65.5-13l1.46.52c-.5-1.65-.94-3.1-1.36-4.5l3.79-3.18a19.49,19.49,0,0,1-3,0A10,10,0,0,1,129.8,222.38Zm19.79-12.31c-4.05,1.09-6-.56-6.53-4.52-.42,4-2.38,5.81-6.53,5.34,4.25,1.59,4,4.31,2.78,7.47l3.79-2.84,2,1.3,1.79,1.13.73,0C144.57,214.27,146.48,212.13,149.59,210.07Zm-2.67,32.55c-1.92-3.47-.69-6,2.68-8-4.17,1.25-5.91-.55-6.31-4.9-.82,2.23-1,4.14-2,5s-2.84.52-4.46.73c1.28,1.18,2.91,2,3.25,3.19s-.6,2.77-1.09,4.59l4.13-3.11C144.43,241,145.67,241.82,146.92,242.62Zm-7.55,49.51c1.22-.85,2.41-2.34,3.64-2.38s2.64,1.31,4.06,2.12c-.38-1.64-1.29-3.31-.92-4.6s2.07-2,3.18-3c-4,1-5.55-1.07-6.35-4.67-.29,4.17-2.48,5.66-6.5,5.18C140.39,286.34,140.87,288.83,139.37,292.13Zm10.23-32.71c-4.14,1.07-5.95-.66-6.53-4.57-.5,3.86-2.26,5.9-6.51,5.24,4,1.7,4.2,4.27,2.48,7.68,2.65-3,5.24-3.41,8.19-.39C145.23,263.8,145.88,261.29,149.6,259.42Z"/><path class="cls-20" d="M228.77,179.18c4.35-.63,8.69-1.28,13-1.89,4.58-.64,9.17-1.24,13.75-1.86l.21,17.79q0,8.86,0,17.74t0,17.54v17.74l0,17.52,0,17.84q-.06,8.75-.11,17.49l-26.88,3.77q0-9.81-.08-19.62c1.88-3.1,4.08-1.41,6.51-.15-2.54-3.81-.28-5.87,2.95-8l-5.33.48c-.54-1.48-1-2.77-1.64-4.47-.49,1.3-.81,2.15-1.14,3-.41-.89-1.15-1.78-1.19-2.69-.16-4.29-.12-8.58-.15-12.86,1.52-2.16,3.23-2.36,5.21-.58a2.83,2.83,0,0,0,1.06.36l.17.09-.2-.05c-1.38-3.23-.59-5.74,2.45-7.53.07,0,0-.25,0-.33l-4.6.39c-.55-1.49-1-2.77-1.63-4.45l-1.31,3.4a10.27,10.27,0,0,1-1-2.93c-.13-3.37,0-6.75-.09-10.12a8.86,8.86,0,0,0-.7-2.31l3.09-2.75,3.8,2.18.93.12c-3.44-3.76-1.1-5.9,1.63-8.17-3.63,1.18-5.87.37-6.52-3.43l-1.11,2.73a10.11,10.11,0,0,1-1-2.92c-.13-3.36,0-6.73-.09-10.09a8.69,8.69,0,0,0-.68-2.31c2-3,4.34-2.37,7.06-.38-2-3.47-1.05-6,1.85-8.1l-4.2.24-1.6-4.42-1.24,3.32a10.47,10.47,0,0,1-1.1-3.13C228.72,191.33,228.77,185.25,228.77,179.18Zm13.33,90.61c2.17-2.43,4.58-3.37,7.79-1.06-2.38-3.58-.4-5.81,2.93-8l-5.33.61L246,257.2l-.6-.1c0,4-2.09,5.65-5.92,5.53.88.79,1.81,1.14,2.38,1.8a3.52,3.52,0,0,1,.77,2.22,12.83,12.83,0,0,1-.65,2.74c0,.13.1.29.15.43l-.22.11Zm0-24.72c2.25-2.18,4.63-3.37,7.85-1-2.48-3.68-.34-5.85,3-8l-5.37.57c-.54-1.47-1-2.75-1.47-4-.68,3.81-2.68,5.68-6.56,5.61l3.52,2.23c-.34,1.75-.61,3.2-.89,4.65l-.23.26Zm-.33-48.91,4.24-3.25,3.94,2.29a.26.26,0,0,0,.17-.15c-2-3.37-1.21-6.06,2-8.15l-4.5.52c-.56-1.43-1.08-2.76-1.59-4.09l-.63-.39c.32,4.55-2.26,5.79-6.21,5.64,4.1,3,4.1,3,2.48,7.46Zm.37,98.3c2.12-1.82,4.17-4.12,7.07-1.14.06.06.27,0,.77-.08-2.46-3.48-.45-5.69,2.09-7.83l-4.5.58L246,282l-.61-.07c-.1,4-2.19,5.61-5.93,5.55l3.45,2.31c-.29,1.72-.54,3.24-.79,4.75l-.32,0s.09.07.11.06A1.3,1.3,0,0,0,242.09,294.46Zm-.34-73.62,4.18-3.3,3.52,2c-2-3.74.1-5.93,3.37-8.11l-5.28.59c-.55-1.45-1.06-2.78-1.56-4.12-.44,4.42-3.3,5.42-7.19,5.33,4.4,3,4.4,3,2.84,7.45Z"/><path class="cls-21" d="M228.68,258.57c0,4.28,0,8.57.15,12.86,0,.91.78,1.8,1.19,2.69-.22,3.49-3.55,1.54-5.32,3.08,4,1,3.82,3.5,2.58,6.4,0,.11.08.29.12.44l-.18.12.15-.16,1.3-.76q0,9.81.08,19.62l.05.17c-.86.06-1.73.1-2.59.2l-22.11,2.51V286l2.26,1c-2.6-3.7-1.52-6.17,1.81-8.1-1.29-.09-2.34.12-3.39.08-.52,0-1-.46-1.54-.71a6.74,6.74,0,0,0,.82-2.14c.08-3.93,0-7.87.08-11.8a8,8,0,0,1,.91-2.44c.19-.24.61-.61.56-.71-1.57-2.82-.61-4.8,2-6.28.23-.13.36-.43.76-.94a28,28,0,0,1-3.6.43c-.51,0-1-.52-1.52-.8a6.6,6.6,0,0,0,.82-2.13c.08-3.92,0-7.85.08-11.77a8.64,8.64,0,0,1,.87-2.46c.19-.3.63-.74.55-.88-1.56-2.68-.53-4.49,1.86-5.92a7,7,0,0,0,1-1.06l-4.34.39c0-4.9,0-9.79,0-14.69a8.69,8.69,0,0,1,.83-2.49c.2-.31.65-.77.56-.91-1.6-2.7-.45-4.47,1.9-5.86a11.52,11.52,0,0,1,1.07-.47l-.43-.6a19.56,19.56,0,0,1-3.13.33c-.58,0-1.15-.54-1.72-.83a6.56,6.56,0,0,0,.84-2.11c.07-5.88.06-11.75,0-17.63a9.52,9.52,0,0,0-.55-2.16c4.35-.6,8.7-1.23,13.05-1.78,4.06-.52,8.13-1,12.19-1.41,0,6.07-.05,12.15.06,18.22a10.47,10.47,0,0,0,1.1,3.13c-.48,3.3-3.67,1.09-5.23,2.74,4.18,1.08,3.89,3.82,2.09,7.18l1.27-.58a8.69,8.69,0,0,1,.68,2.31c.08,3.36,0,6.73.09,10.09a10.11,10.11,0,0,0,1,2.92c-.38,3.44-3.71.94-5.23,2.88,4.23.59,3.85,3.21,2.67,6.14-.05.12,0,.3.08.45l-.24.17c.05,0,.11,0,.13,0a.62.62,0,0,0,.07-.19l.7-.11a8.86,8.86,0,0,1,.7,2.31c.08,3.37,0,6.75.09,10.12a10.27,10.27,0,0,0,1,2.93c-.4,3.25-3.57,1-5,2.63l3.38,2.18c-.32,1.65-.61,3.16-.9,4.67l-.23.25.19-.3Zm-8.43-60,.16.1-.2-.06c-1.12-3-.89-5.56,2.23-7.25,0,0-.05-.26-.12-.63-3.55,1.53-5.23-.27-6-3.93-.23,4.19-2.33,5.81-6.38,5.6,4.17,1.5,4.16,4.05,2,7.55,1-.59,1.53-.73,1.79-1.06,1.83-2.3,3.79-1.89,5.87-.4C219.73,198.6,220,198.54,220.25,198.56Zm0,24.68a.56.56,0,0,0,.07.18s.09,0,.14,0l-.25-.15c-1.13-3.07-.81-5.67,2.37-7.37.07,0,0-.29.06-.43-1.47.08-3.21.66-4.32.07s-1.24-2.35-2.11-4.22c-.64,3.83-2.13,6.09-6.38,5.36,1.62,1.38,3.31,2.14,3.63,3.28s-.69,2.68-1.18,4.23c.36-.11.71-.12.86-.29,2-2.39,4.23-2.36,6.65-.7C219.9,223.28,220.09,223.23,220.25,223.24Zm.22,74.23c-2.26-3.83-.49-6.12,2.53-8.21-3.88,1.34-6.17.38-6.5-4-.81,1.75-.93,3.58-1.91,4.46s-2.83.88-4.83,1.41c4.25,1.09,4.15,3.82,2.91,7.23C215,295.35,217.39,294.49,220.47,297.47Zm2.91-32.83-5.28.44-1.48-4c-.73,3.53-2.4,5.63-6.68,5.17,4.07,1.64,4.43,4.1,1.82,7.41l.78,0,3.7-2.87,3.84,1.86.62-.13C218,268.8,220.27,266.75,223.38,264.64Zm-13.52-23c4.08,1.45,4.28,4,2.67,7.39,2.42-2.54,4.79-3.86,8-.89-2.48-3.9-.3-6,2.85-8-2.12.14-3.85.76-5,.18s-1.28-2.34-2.17-4.2C215.64,239.93,214.08,242.13,209.86,241.59Z"/><path class="cls-22" d="M255.76,193.22l-.21-17.79c14.88-2.4,29.76-4.72,44.63-7.2,19-3.18,37.93-6.53,56.91-9.71,9.41-1.57,18.86-2.94,28.28-4.4l.06,17.64-.54.3c-3.9.55-7.82,1-11.71,1.67-18,3-35.91,6.19-53.88,9.18C298.13,186.42,276.94,189.79,255.76,193.22Z"/><path class="cls-23" d="M205,237.26a8.64,8.64,0,0,0-.87,2.46c-.09,3.92,0,7.85-.08,11.77a6.6,6.6,0,0,1-.82,2.13l-1.42-3.68c-.64,1.82-.78,3.74-1.8,4.63s-2.89.68-4.39,1c3.76,1.44,3.69,4,2.54,7.22,1.22-.93,2.43-1.87,3.73-2.88l3.15,2.06a8,8,0,0,0-.91,2.44c-.09,3.93,0,7.87-.08,11.8a6.74,6.74,0,0,1-.82,2.14c-.22-.59-.43-1.18-.66-1.76s-.42-1-.63-1.52c-.41,4.21-3.16,5.2-7.13,5.1,4.22,2.38,4.22,2.38,3.15,6.46a3.35,3.35,0,0,0-.05.71s0,.1,0,.16v-.2l4.17-2.68,2,1.42v19.75L183.69,308l-.94-.19.45-6.46,4-3,4.1,2.49c-.57-1.88-1-3.33-1.43-4.76l4.11-3.53-5.18.43c-.55-1.55-1-2.9-1.55-4.39-1.5,1.8-.48,5.69-4.48,4.88,0-4.75,0-9.49,0-14.23a11.52,11.52,0,0,1,.56-2.41l3.77-3.15,3.84,2.28c-2.07-3.65-.43-5.94,2.37-8l-4.53.36-1.5-4.25c-1.61,1.59-.48,5.68-4.53,4.74,0-4.73,0-9.47,0-14.21a12.47,12.47,0,0,1,.52-2.42l3.83-3.11,4.08,2.41-1.33-4.66,3.95-3.5-5,.34-1.52-4.27c-1.61,1.62-.44,5.72-4.52,4.78,0-2.43,0-4.85,0-7.28.06-3.27.19-6.53.3-9.8.28,0,.7.06.82-.09,2.15-2.67,4.45-2.53,6.9-.46,0,0,.13,0,.35-.1-.43-1.4-.85-2.81-1.29-4.27l3.71-3.19c-3.73,1-5.8-.31-6.24-4.43-1.5,2.18-.7,5.81-4.56,5,0-4.73,0-9.47,0-14.2a14.07,14.07,0,0,1,.44-2.47c2.26-2,4.49-4.12,7.43-1,0,0,.25-.08.37-.12-.3-1.49-1.16-3.17-.75-4.43s2.1-2,3.61-3.3c-4.91.47-4.91.47-6.76-4.13-.48,1.43-.93,2.58-1.26,3.77-.51,1.81-2,1.08-3.1,1.23,0-3.49,0-7,0-10.48l20.79-2a9.52,9.52,0,0,1,.55,2.16c0,5.88,0,11.75,0,17.63a6.56,6.56,0,0,1-.84,2.11c-.41-1.05-.83-2.1-1.42-3.58l-1.7,4.88-4.64.6c3.59,1.49,4.06,4,2.75,7.31l3.71-2.89,3.05,2a8.69,8.69,0,0,0-.83,2.49c-.08,4.9,0,9.79,0,14.69l-2.54-4.23c-.23,3.83-2.27,5.69-6.39,5.43,4.25,1.26,4.07,4,3.12,7.09l3.61-2.88Z"/><path class="cls-24" d="M183.06,227.07c-.11,3.27-.24,6.53-.3,9.8,0,2.43,0,4.85,0,7.28l-2.08.58,2.14,1.61.51,4.19,0,1.63a12.47,12.47,0,0,0-.52,2.42c-.05,4.74,0,9.48,0,14.21l-2.16.54,3,2.15c-1.51,1.11-.8,2.4-.3,3.68l0,1.65a11.52,11.52,0,0,0-.56,2.41c-.05,4.74,0,9.48,0,14.23l-2.22.47,3.12,2.22c-1.57,1.08-.86,2.38-.36,3.66l-.09,1.54-.45,6.46-18.51,1.72q0-6.88-.05-13.77a.38.38,0,0,1,.05-.36q0-12.15,0-24.3a.74.74,0,0,1,0-.36c0-7.14,0-14.29,0-21.44a9.79,9.79,0,0,0-.59-2.37l.62-.9c0-7.12,0-14.23,0-21.34a11.49,11.49,0,0,0-.55-2.41l.56-.88c0-7,0-14.08,0-21.12,0-.74-.68-1.48-1-2.22l1.08-1.35V185.93l18.51-1.52c0,3.49,0,7,0,10.48l-2.13.55,2.16,1.63.54,4.11-.11,1.67a14.07,14.07,0,0,0-.44,2.47c0,4.73,0,9.47,0,14.2l-2.12.58,2.16,1.62.53,4.14Zm-17.15,6.56c4,1.48,4.14,4.07,2.63,7.48,2.49-3.62,5.14-2.65,8.08-.68-2.68-3.79-.53-6,2.25-8.16-4.1,1.73-5.65-.34-6.54-3.93C172,232.44,169.89,234,165.91,233.63ZM179,207.89c-1.94,0-3.74.52-4.79-.15s-1.13-2.51-1.78-4.18c-.66,1.81-.81,3.72-1.84,4.6s-2.87.55-4.36.76c3.8,1.51,3.63,4.2,2.36,7.56,2.41-3.94,5.15-2.24,8-.53l-1.48-4.74Zm-6.84,69.16c-.29,4.29-2,6.39-6.72,5.38,1.82,1.45,3.55,2.17,3.94,3.33s-.51,2.83-1,4.74l4-3.15,3.84,2.3c-2.1-3.66-.49-6,2.65-7.85-1.72,0-3.57.66-4.52,0S173.1,279.16,172.19,277.05Zm-6.33-18.78c4.63,1.39,3.88,4.19,2.64,7.47,2.48-3.69,5.21-2.47,8.15-.63-2.58-3.79-.62-6,2.32-8.29-4.48,2.14-5.76-.38-6.57-3.95C171.82,256.55,170.41,258.92,165.86,258.27Z"/><path class="cls-9" d="M104.45,347.66H88.82V330.09l20.85-.25.47.2V347.4Z"/><path class="cls-10" d="M109.67,329.84l-20.85.25q0-8.77,0-17.53l20.87-.18Z"/><path class="cls-25" d="M109.67,329.84V312.38l3.33-.31,17.57-.61-.06.2q0,8.7,0,17.39c-.7.08-1.39.2-2.09.23l-18.32.76Z"/><path class="cls-10" d="M113.54,231.5c.66,1.49,1.31,3,2,4.62h4.69c-1.41,1.22-3.07,2-3.45,3.16s.5,2.8,1,4.74a21.59,21.59,0,0,0-2.86-1.9,5.37,5.37,0,0,0-2-.12l-3.56,2.4c1.9-3.64,2.11-6.42-2.39-7.94C111.69,237.38,113.14,235.06,113.54,231.5Z"/><path class="cls-10" d="M113.56,206.85c.11.11.29.21.32.33.63,3.33,2.17,5.4,6.35,4.27-3.31,1.89-4.61,4.13-2.79,7.68a18.25,18.25,0,0,0-2.55-1.66,5.42,5.42,0,0,0-1.94-.07l-3.56,2.38c1.82-3.52,2.11-6.29-2.2-7.8C111.52,212.53,113.13,210.36,113.56,206.85Z"/><path class="cls-10" d="M113.51,280.78c.12.08.31.14.35.26.55,1.39.7,3.27,1.7,4s2.79.28,5.16.4c-4,1.79-4.94,4.17-3.27,7.62a18.58,18.58,0,0,0-2.61-1.75,5.08,5.08,0,0,0-2-.08l-3.56,2.5c1.93-3.63,2.05-6.35-2.14-8C111.63,286.57,113,284.16,113.51,280.78Z"/><path class="cls-10" d="M113.54,256.17c.63,1.42,1.27,2.84,2,4.43h4.25c-2.65,2.08-4.3,4.3-2.31,7.86a18.44,18.44,0,0,0-2.61-1.73,5,5,0,0,0-1.94-.08l-3.45,2.27c.55-1.61,1.59-3.14,1.34-4.42s-1.75-2.41-2.56-3.42c.81-.11,2.71.2,3.63-.61S113,257.65,113.54,256.17Z"/><path class="cls-18" d="M96.34,301.24l-3.54-2.65c3.71.37,5.77-1.15,6.35-5l1.66,4.46h4.36c-3.12,1.9-4.29,4.25-1.6,7.78l-.78,0-3.71-2.55-4.2,2.9C95.44,304.27,95.88,302.8,96.34,301.24Z"/><path class="cls-10" d="M99.06,204.65l-4.15,3,1.45-4.88L92.85,200c3.72.3,5.93-1.06,6.3-5l1.59,4.45h4.41c-3.05,1.91-4.12,4.3-2.4,7.72Z"/><path class="cls-10" d="M102.68,231.83l-3.61-2.55-4.16,3c.55-1.85,1-3.3,1.45-4.91l-3.6-2.77c3.85.49,5.9-1.14,6.37-5l1.64,4.57h4.36c-3.2,1.82-4,4.2-1.81,7.53Z"/><path class="cls-10" d="M102.78,281.11,99,278.57l-4.09,2.94,1.41-4.89L92.84,274c3.75.43,5.72-1.24,6.1-5.18.93,3.34,2,6.14,6.6,4.54C102.07,275.26,101,277.71,102.78,281.11Z"/><path class="cls-10" d="M99.06,244c.6,1.7,1.13,3.17,1.68,4.73H105c-3.11,1.93-3.9,4.4-2.23,7.71L99,253.93l-4.15,3,1.5-4.9-3.85-2.95c1.8-.14,3.7.25,4.68-.53S98.41,245.76,99.06,244Z"/><path class="cls-10" d="M129.82,271.68a9.61,9.61,0,0,0,2.05.81,27,27,0,0,0,3.54,0c-3.85,1.87-5.09,4.2-2.62,7.76L131,279.7l-2.53-2-3.76,2.81c1.3-3.24,1.15-5.92-2.89-7.56,4.26.68,6-1.26,6.34-5.67C128.93,269.28,129.38,270.48,129.82,271.68Z"/><path class="cls-10" d="M129.82,296.36a9.78,9.78,0,0,0,2.12.8,20.37,20.37,0,0,0,3.27-.17l-4.12,3.34c.45,1.44.9,2.9,1.43,4.57l-1.48-.56-2.52-2-3.91,2.85c1.32-3.18,1.47-5.85-2.73-7.49,4.07.4,6.17-1.21,6.63-5C129,293.94,129.38,295.15,129.82,296.36Z"/><path class="cls-10" d="M129.8,222.38a10,10,0,0,0,2.06.83,19.49,19.49,0,0,0,3,0l-3.79,3.18c.42,1.4.86,2.85,1.36,4.5l-1.46-.52-2.48-1.92-4.61,3.24c2.16-3.74,1.91-6.34-2-7.94,4,.43,6.2-1,6.59-5Z"/><path class="cls-10" d="M129.81,247a6.82,6.82,0,0,0,1.82.85,27.66,27.66,0,0,0,3.71,0c-3.88,1.88-5,4.25-2.52,7.78l-1.8-.65-2.48-1.93-4.62,3.17c2.13-3.64,2-6.22-2-7.78,3.73.09,6.38-.82,6.55-5C128.94,244.67,129.37,245.85,129.81,247Z"/><path class="cls-10" d="M129.8,197.7a9.73,9.73,0,0,0,2,.84,23.42,23.42,0,0,0,3.41,0c-3.45,2-5.13,4.17-2.38,7.83l-1.86-.65-2.52-1.9-4.2,3,1.41-4.89-3.75-2.8c1.75-.25,3.63,0,4.61-.82s1.22-2.76,1.87-4.43Z"/><path class="cls-26" d="M300.89,400.12c6-1.07,12-2.17,18.05-3.2q16.37-2.78,32.76-5.46c9.53-1.55,19.06-3.1,28.61-4.49,8.39-1.21,16.79-2.46,25.22-3.18,6.23-.52,12.55-1,18.8.33,4.27.88,6.59,3.16,5.47,6.12a11,11,0,0,1-3.67,4.72c-5.15,3.81-11.28,5.49-17.35,7.19-2.26.64-4.54,1.26-6.81,1.89-3.16.55-6.31,1.16-9.48,1.66-6.81,1.06-13.62,2.15-20.45,3.08-5.83.78-11.68,1.37-17.52,2S342.83,412,337,412.64c-5,.32-10,.62-15,1-6.08.43-12.16.91-18.24,1.36V401.49Z"/><path class="cls-27" d="M155.7,416.32l-6.17.09c0-3.24.06-6.48,0-9.71-.06-2.59-.3-5.16-.46-7.75l6.18-.62c1.65-.07,3.3-.09,5-.21,7-.53,14.1-1.09,21.14-1.64q.24,8.75.49,17.48c-6.64.5-13.27,1-19.9,1.52C159.83,415.65,157.77,416,155.7,416.32Z"/><path class="cls-12" d="M149.05,399c.16,2.59.4,5.16.46,7.75.08,3.23,0,6.47,0,9.71-4.85.31-9.7.68-14.56.92-4.47.23-9,.31-13.43.45q0-8.76,0-17.5l9-.58Z"/><path class="cls-13" d="M155.7,416.32c2.07-.29,4.13-.67,6.21-.84,6.63-.55,13.26-1,19.9-1.52l38.9-4.25,23.73-2.84c.17.45.34.9.52,1.35-11.06,1.31-22.11,2.69-33.17,3.9q-14.5,1.58-29,2.84c-8.2.72-16.42,1.28-24.64,1.85A9.21,9.21,0,0,1,155.7,416.32Z"/><path class="cls-26" d="M289.06,417.25c-3.09.32-6.18.8-9.28.91-15.42.55-30.84,1-46.26,1.48a2.6,2.6,0,0,1-.47-.09c-.17-1.35.44-1.75,1.77-1.77,7.09-.1,14.18-.23,21.27-.46,7.94-.26,15.87-.62,23.8-.95,3.06-.13,6.11-.3,9.17-.44Z"/><path class="cls-13" d="M289.06,417.25v-1.32l14.7-1c6.08-.45,12.16-.93,18.24-1.36,5-.35,10-.65,15-1,.62.3,1.23.61,1.86.89s1.27.56,1.91.84c-2.34.2-4.69.4-7,.62-3.19.28-6.38.58-9.56.87q-14.25.76-28.48,1.51c-.78,0-1.57-.06-2.35-.09l-.59-.72-.4.69Z"/><path class="cls-10" d="M239.69,426.35h-.94a8.63,8.63,0,0,0-2.09-.9c-1.82-.26-3.67-.36-5.51-.52.87-.15,1.75-.34,2.62-.46,1.34-.18,2.68-.31,4-.46l11.85.48c.55,1.42,1.44,1.11,2.39.45h6.63c.54.31,1.07.88,1.62.9,6.23.22,12.46.29,18.69.53,5.26.21,10.5.75,15.76.86,4.24.09,8.49-.31,12.73-.38,4.39-.08,8.77,0,13.15,0,8-.12,16-.32,24-.46,2.76-.05,3.69-.91,3.73-3.66,0-2.92,0-5.84,0-8.77q6.91-.8,13.82-1.61,8.74-1,17.51-2.11c0,4.5-.08,9,0,13.49.05,2-.69,2.9-2.6,3.17s-3.83.82-5.77,1c-6.83.8-13.66,1.77-20.52,2.16-6.56.36-13.16.12-19.74.06-2.82,0-5.64-.4-8.46-.41-2.49,0-5,.27-7.48.43-4.85-.31-9.71-.09-14.56-.86-3-.47-6.08,0-9.12-.13-1.61-.07-3.19-.72-4.8-.79-3.91-.16-7.83,0-11.73-.22-5.71-.32-11.41-.89-17.12-1.3a7.67,7.67,0,0,0-2,.44h-1.41c-1.76-1.82-3.75-1-5.71-.47h-3.31c-.54-1.45-1.43-1.11-2.38-.47h-3.32Z"/><path class="cls-16" d="M402.45,405.82l10.45-2.63a29.48,29.48,0,0,1,.45,3.49c0,5.77,0,11.54,0,17.32a8.78,8.78,0,0,1-6.87,9c-5.28,1.34-10.57,2.6-15.91,3.66-1.94.39-4,.09-6,.14-5.32.14-10.64.55-15.95.4-6.51-.19-13-.87-19.51-1.29-3.46-.22-6.92-.29-10.37-.55-7.44-.56-14.87-1.22-22.3-1.82-4.54-.36-9.09-.64-13.64-1q-8.09-.67-16.18-1.48c-.32,0-.59-.58-.89-.88,1.9.13,3.8.3,5.7.37,2.67.1,5.36,0,8,.21,4.45.34,8.88,1.09,13.33,1.27,11.41.45,22.83.73,34.25,1,5.76.13,11.53,0,17.29,0a54.37,54.37,0,0,0,5.57-.14c4.66-.51,9.36-.9,13.95-1.83a71,71,0,0,0,11.82-3.6c1-.4,1.92-2.34,2-3.61.21-5.6.09-11.21.09-16.82Z"/><path class="cls-15" d="M397.71,407c0,5.61.12,11.22-.09,16.82-.05,1.27-1,3.21-2,3.61a71,71,0,0,1-11.82,3.6c-4.59.93-9.29,1.32-13.95,1.83a54.37,54.37,0,0,1-5.57.14c-5.76,0-11.53.11-17.29,0-11.42-.24-22.84-.52-34.25-1-4.45-.18-8.88-.93-13.33-1.27-2.66-.21-5.35-.11-8-.21-1.9-.07-3.8-.24-5.7-.37H284.3l-4.75-.48h-1.42l-3.8-.47h-2.85l-2.37-.47h-7.59c-.53-1.47-1.42-1.13-2.37-.47h-3.32c0-.31,0-.63,0-.95a7.67,7.67,0,0,1,2-.44c5.71.41,11.41,1,17.12,1.3,3.9.22,7.82.06,11.73.22,1.61.07,3.19.72,4.8.79,3,.13,6.15-.34,9.12.13,4.85.77,9.71.55,14.56.86a9,9,0,0,0,2.28.71c1.48.05,3-.27,4.46-.19,4.54.24,9.08.72,13.62.86,3.13.09,6.28-.29,9.41-.36,8.21-.2,16.45,0,24.62-.64,5.66-.46,11.22-2.08,16.83-3.18,1.76-.34,2.41-1.33,2.37-3.17-.11-5.13,0-10.27,0-15.4Z"/><path class="cls-15" d="M248.7,426.82c2-.48,4-1.35,5.71.47H252l-3.32.47C248.71,427.45,248.71,427.13,248.7,426.82Z"/><path class="cls-16" d="M279.55,429.67l4.75.48C282.65,430.64,281,431.49,279.55,429.67Z"/><path class="cls-16" d="M274.33,429.2l3.8.47C276.78,430.19,275.4,431,274.33,429.2Z"/><path class="cls-16" d="M252,427.3h3.79c0,.32,0,.64,0,.95Z"/><path class="cls-15" d="M243,426.34c1-.64,1.84-1,2.38.47l-2.37.48C243,427,243,426.66,243,426.34Z"/><path class="cls-16" d="M248.7,426.82c0,.31,0,.63,0,.95l-2.85-.95Z"/><path class="cls-16" d="M259.15,428.25c1-.66,1.84-1,2.37.47Z"/><path class="cls-16" d="M269.11,428.73l2.37.47C270.53,429.85,269.64,430.19,269.11,428.73Z"/><path class="cls-16" d="M263.89,428.72h0Z"/><path class="cls-16" d="M243,426.34c0,.32,0,.64,0,1-.48-.31-1-.62-1.43-.94Z"/><path class="cls-18" d="M348.35,413.93c0,2.93,0,5.85,0,8.77,0,2.75-1,3.61-3.73,3.66-8,.14-16,.34-24,.46-4.38.06-8.76-.05-13.15,0-4.24.07-8.49.47-12.73.38-5.26-.11-10.5-.65-15.76-.86-6.23-.24-12.46-.31-18.69-.53-.55,0-1.08-.59-1.62-.9,4.6-.13,9.22-.6,13.79-.32,8.46.52,16.91.7,25.38.77q11.42.11,22.83,0c2.45,0,3.46-1.33,3.49-3.82,0-1.89,0-3.79,0-5.68,3.19-.29,6.38-.59,9.57-.87,2.35-.22,4.7-.42,7-.62Z"/><path class="cls-18" d="M237.79,424c-1.34.15-2.68.28-4,.46-.87.12-1.75.31-2.62.46h-.94a7.94,7.94,0,0,0-1.85-.91c-1.26-.26-2.56-.34-3.85-.49,2.69-.13,5.39-.4,8.08-.35A37.25,37.25,0,0,1,237.79,424Z"/><path class="cls-10" d="M224.51,423.52c1.29.15,2.59.23,3.85.49a7.94,7.94,0,0,1,1.85.91l-5.72,0h-.93l-2.37-.95,2.36-.48Z"/><path class="cls-10" d="M203.57,422.18c0,.3,0,.59.05.88-1.08.79-1.77.62-2-.79Z"/><path class="cls-18" d="M252,424.93c-.95.66-1.84,1-2.39-.45Z"/><path class="cls-26" d="M292.34,417.25l.4-.69.59.72Z"/><path class="cls-18" d="M255.35,424.94h0Z"/><path class="cls-22" d="M381.1,384.11c-6.74,1.11-13.47,2.19-20.2,3.33-8.75,1.47-17.48,3-26.22,4.47-9.82,1.67-19.64,3.36-29.47,5q-9.16,1.54-18.35,3c-1,.16-2,.22-3,.32,0-4.34,0-8.67,0-13a33.16,33.16,0,0,0-.55-3.93q34.89-6,69.78-12c9.33-1.58,18.7-3,28.06-4.45Z"/><path class="cls-17" d="M283.25,383.32a33.16,33.16,0,0,1,.55,3.93c.06,4.34,0,8.67,0,13-4.44.79-8.87,1.61-13.32,2.35-6.48,1.07-13,2.06-19.45,3.1-2.21.36-4.4.77-6.61,1.16l-23.73,2.84c0-3.7.06-7.41,0-11.11-.05-2.1-.32-4.2-.49-6.3Z"/><path class="cls-11" d="M381.1,384.11q0-8.6,0-17.2l5.22-1,5.71-.66q0,8.7,0,17.4Z"/><path class="cls-18" d="M412.42,363.42l-5.71.15q0-8.81,0-17.62l.54-.31,8.07-.14,1.88.21q0,8.75,0,17.5l.06.2Z"/><path class="cls-27" d="M392,382.69q0-8.7,0-17.4l7.11-1.1,2.38,0c0,5.2,0,10.39,0,15.58,0,1.39-.38,1.9-1.85,2C397.11,381.93,394.56,382.37,392,382.69Z"/><path class="cls-14" d="M348.35,413.93l-7.59.44c-.64-.28-1.28-.55-1.91-.84s-1.24-.59-1.86-.89c5.84-.61,11.69-1.21,17.53-1.85s11.69-1.23,17.52-2c6.83-.93,13.64-2,20.45-3.08,3.17-.5,6.32-1.11,9.48-1.66l.48,1.78L397.71,407l-9,1.79-9,1.43q-8.76,1.07-17.51,2.11Q355.26,413.15,348.35,413.93Z"/><path class="cls-10" d="M401.51,364.23l-2.38,0q0-8.74,0-17.48l7.55-.76q0,8.82,0,17.62Z"/><path class="cls-13" d="M423.85,364c0,4.94-.12,9.87,0,14.8.05,2-.61,2.72-2.53,2.45-1.39-.19-2.78-.32-4.17-.48q0-8.7,0-17.39l-.06-.2,6.19.49Z"/><path class="cls-14" d="M417.21,363.41q0,8.68,0,17.39c-4.75,0-4.75,0-4.75-4.66q0-6.36,0-12.72Z"/><path class="cls-10" d="M430.16,348.43a8,8,0,0,0-1.09,2.57c-.13,4.78-.1,9.57-.13,14.35l-1.7-.51-1.07-.58q0-8.77,0-17.55l.47-.1,1.72.61Z"/><path class="cls-18" d="M426.18,346.71q0,8.78,0,17.55l-2.32-.23-.51-.33,0-17.5Z"/><path class="cls-12" d="M427.24,364.84l1.7.51,1,.81c-.16,3.22-.36,6.44-.45,9.66-.08,2.44,0,4.89,0,7.34-2-.54-2.51-1.88-2.43-3.9C427.27,374.46,427.2,369.65,427.24,364.84Z"/><path class="cls-12" d="M120.59,382.3q0-8.62,0-17.24l5.24-.47c.94,0,1.88.07,2.82,0l20-.88q0,8.67.1,17.34l-11.3.67c-2.28.14-4.55.32-6.83.48Z"/><path class="cls-25" d="M120.59,382.3l10-.07V399.7l-9,.58-12.82.05q0-8.73,0-17.47Z"/><path class="cls-25" d="M125.81,364.59l-5.24.47-16.12.1v-17.5l5.69-.26,15.67-.27Z"/><path class="cls-16" d="M384.89,172.06l.54-.3,11.76-1.33q0,8.79,0,17.57l-4.74.73-7.6.81Z"/><path class="cls-25" d="M397.23,188q0-8.77,0-17.57l.52-.35,8.51-.53q0,8.79,0,17.57l-3.79.54Z"/><path class="cls-18" d="M406.24,187.12q0-8.79,0-17.57a1.88,1.88,0,0,1,0-.33l6.15-.24h4.78l-.05.2v17.5l-.46.2h-5.23Z"/><path class="cls-8" d="M417.16,186.69v-17.5l6.19.49q0,8.76,0,17.52Z"/><path class="cls-18" d="M423.33,187.2q0-8.76,0-17.52a.59.59,0,0,1,.45,0l2.39.53-.06,17.57-2.71-.32A1.12,1.12,0,0,0,423.33,187.2Z"/><path class="cls-18" d="M428.17,276.82a11.64,11.64,0,0,0-.55,2.41c-.05,4.1,0,8.2-.05,12.3a13,13,0,0,1-.48,2.44l-2.8-.61q0-8.83,0-17.65l1.84.17Z"/><path class="cls-12" d="M428.17,276.82l-2-.94.12-17.24,2.27.61,1.78,1.27a9.14,9.14,0,0,0-.8,2.49c-.09,3.82,0,7.64-.06,11.46a13.78,13.78,0,0,1-.47,2.42Z"/><path class="cls-14" d="M424.29,293.36l2.8.61a.73.73,0,0,1,.11.29q0,8.61-.08,17.21l-.94,0-2.32-.49a1.89,1.89,0,0,1-.09-.34l0-17.16Z"/><path class="cls-12" d="M427.12,311.47q0-8.6.08-17.21l3.23,1.65c0,4.7.06,9.39,0,14.09a8.58,8.58,0,0,1-.87,2.45Z"/><path class="cls-10" d="M426.12,187.78l.06-17.57.91,0,2,1q-.07,8.78-.14,17.55l-2.74-.74A1.57,1.57,0,0,1,426.12,187.78Z"/><path class="cls-12" d="M428.37,347.22l-1.72-.61q0-8.58,0-17.17l2.3.67.5.5c0,4.68.07,9.37,0,14.05A7.72,7.72,0,0,1,428.37,347.22Z"/><path class="cls-12" d="M426.2,188.09l2.74.74,1.35,1.08a8,8,0,0,0-.75,2.25c-.08,3.91,0,7.81-.07,11.71a10.75,10.75,0,0,1-.57,2.37l-2.69-.64a1.39,1.39,0,0,0,0-.35Z"/><path class="cls-10" d="M426.21,205.6l2.69.64a1.87,1.87,0,0,0,.13.4v17.5l-2.28-.68-.57-.3Z"/><path class="cls-10" d="M428.56,259.25l-2.27-.61a1.53,1.53,0,0,0-.11-.27q0-8.76,0-17.51l3.31.95.09.38a12.41,12.41,0,0,0-.52,2.43c-.06,3.71,0,7.43-.05,11.14A28,28,0,0,1,428.56,259.25Z"/><path class="cls-12" d="M429.48,241.81l-3.31-.95a2.21,2.21,0,0,1-.29-.32,10,10,0,0,0,.74-2.53c.1-4.85.1-9.7.13-14.55l2.28.68.5.94Q429.52,233.45,429.48,241.81Z"/><path class="cls-10" d="M429,330.11l-2.3-.67-1.39-.64a8.22,8.22,0,0,0,.84-2.47c.08-4.94,0-9.89,0-14.84l.94,0,2.42,1c0,.13.09.26.13.4a9.76,9.76,0,0,0-.62,2.37C429,320.18,429,325.15,429,330.11Z"/><path class="cls-16" d="M164.24,309.52l18.51-1.72.94.19v17.36l-.94.43c-4.72.35-9.43.68-14.14,1.07-4.47.37-8.94.8-13.41,1.2l-.88-.23q0-8.67,0-17.33Z"/><path class="cls-15" d="M154.3,310.49q0,8.65,0,17.33l-23.77,1.23q0-8.7,0-17.39Z"/><path class="cls-25" d="M164.23,221.39l-.56.88c-3.13,2.1-3.13,2.1-1.85,7.12-.78-.47-1.38-.85-2-1.2s-1.36-.73-2.21-1.19l-3.75,2.85c1.31-3.09,1.83-5.87-2.25-7.56l4.47-.52c.44-1.44.91-3,1.55-5.05a18.23,18.23,0,0,1,1,2.5c.38,1.88,1.3,2.72,3.29,2.23A10.3,10.3,0,0,1,164.23,221.39Z"/><path class="cls-25" d="M164.24,246l-.62.9c-3.6,1.47-3.11,4.08-1.75,7.15-2.88-2.82-5.43-2.71-8,.52,1.27-3.33,1.53-6.11-2.64-7.57,4,.23,6.29-1.08,5.93-5.33l.58,0a12.87,12.87,0,0,1,.83,2.15c.35,1.93,1.36,2.65,3.3,2.22A12.37,12.37,0,0,1,164.24,246Z"/><path class="cls-25" d="M164.23,270.73a.74.74,0,0,0,0,.36c-3.63,2.5-3.63,2.5-2.37,7.59l-4.05-2.46L154,279.06c1.36-3.23,1.3-5.86-2.44-7.5,1.51-.2,3.43.09,4.41-.74s1.17-2.81,1.8-4.59C158.42,270.39,160.76,271.43,164.23,270.73Z"/><path class="cls-10" d="M149.59,210.07c-3.11,2.06-5,4.2-1.93,7.83l-.73,0-1.79-1.13-2-1.3-3.79,2.84c1.23-3.16,1.47-5.88-2.78-7.47,4.15.47,6.11-1.36,6.53-5.34C143.63,209.51,145.54,211.16,149.59,210.07Z"/><path class="cls-25" d="M164.23,196.7l-1.08,1.35-2.7,2,1.54,4.83-4.34-2.56-4.28,3.31c1.85-3.64,2-6.33-2.1-7.79,4,.23,6.12-1.43,6.16-5.35.42.25.57.29.6.37C159.45,196.8,159.45,196.8,164.23,196.7Z"/><path class="cls-10" d="M146.92,242.62c-1.25-.8-2.49-1.61-3.81-2.47L139,243.26c.49-1.82,1.44-3.38,1.09-4.59s-2-2-3.25-3.19c1.62-.21,3.51.08,4.46-.73s1.19-2.8,2-5c.4,4.35,2.14,6.15,6.31,4.9C146.23,236.67,145,239.15,146.92,242.62Z"/><path class="cls-25" d="M139.37,292.13c1.5-3.3,1-5.79-2.89-7.37,4,.48,6.21-1,6.5-5.18.8,3.6,2.37,5.66,6.35,4.67-1.11,1-2.83,1.81-3.18,3s.54,3,.92,4.6c-1.42-.81-2.76-2.16-4.06-2.12S140.59,291.28,139.37,292.13Z"/><path class="cls-10" d="M149.6,259.42c-3.72,1.87-4.37,4.38-2.37,8-2.95-3-5.54-2.64-8.19.39,1.72-3.41,1.48-6-2.48-7.68,4.25.66,6-1.38,6.51-5.24C143.65,258.76,145.46,260.49,149.6,259.42Z"/><path class="cls-25" d="M164.24,295.39a.38.38,0,0,0-.05.36c-3.67,2.46-3.67,2.46-2.31,7.77-2.82-2.6-5.42-3.08-8,.25,1.46-3.36,1.45-6-2.62-7.49,4.14.46,6.06-1.42,6.39-5.2C158.52,294.9,160.75,296.13,164.24,295.39Z"/><path class="cls-28" d="M228.75,302.86l26.88-3.77c6.94-1.06,13.9-2,20.83-3.2,27.64-4.64,55.26-9.37,82.9-14,7.7-1.29,15.44-2.37,23.16-3.55v17.48l-1,.45c-.86.06-1.74.05-2.59.19-10.89,1.82-21.78,3.68-32.68,5.5l-77.74,13c-2.34.35-4.67.71-7,1l-32.75,4.44q0-8.71,0-17.43Z"/><path class="cls-28" d="M384.89,172.06v17.48l-3.8.91a23,23,0,0,0-2.35.16c-26.27,4.47-52.53,9-78.82,13.41-14.7,2.45-29.44,4.63-44.17,6.94q0-8.86,0-17.74c21.18-3.43,42.37-6.8,63.54-10.31,18-3,35.92-6.15,53.88-9.18C377.07,173.07,381,172.61,384.89,172.06Z"/><path class="cls-28" d="M255.74,246.24V228.5c15.59-2.46,31.2-4.79,46.77-7.39,19.77-3.3,39.51-6.82,59.26-10.23,6.44-1.11,12.89-2.17,19.34-3.26l3.28-.17q0,8.79,0,17.58l-.93.25c-18.29,3.05-36.56,6.13-54.85,9.13Q292.19,240.37,255.74,246.24Z"/><path class="cls-22" d="M382.52,278.34c-7.72,1.18-15.46,2.26-23.16,3.55-27.64,4.63-55.26,9.36-82.9,14-6.93,1.17-13.89,2.14-20.83,3.2q.06-8.74.11-17.49l2.33-.39c15.75-2.5,31.51-4.92,47.23-7.54,18.76-3.12,37.5-6.44,56.25-9.65,7.3-1.25,14.62-2.43,21.93-3.65h1.42c0,4.7,0,9.4,0,14.1a19.57,19.57,0,0,0,.56,3.19Z"/><path class="cls-28" d="M383.48,260.37c-7.31,1.22-14.63,2.4-21.93,3.65-18.75,3.21-37.49,6.53-56.25,9.65-15.72,2.62-31.48,5-47.23,7.54l-2.33.39,0-17.84c14-2.19,28.08-4.26,42.09-6.59,18.91-3.15,37.78-6.52,56.68-9.75,9.64-1.65,19.3-3.19,29-4.78l-.06.17Q383.46,251.6,383.48,260.37Z"/><path class="cls-22" d="M383.5,242.64c-9.66,1.59-19.32,3.13-29,4.78-18.9,3.23-37.77,6.6-56.68,9.75-14,2.33-28.06,4.4-42.09,6.59l0-17.52q36.43-5.91,72.89-11.83c18.29-3,36.56-6.08,54.85-9.13Q383.48,234,383.5,242.64Z"/><path class="cls-22" d="M381.11,207.62c-6.45,1.09-12.9,2.15-19.34,3.26-19.75,3.41-39.49,6.93-59.26,10.23-15.57,2.6-31.18,4.93-46.77,7.39q0-8.77,0-17.54c14.73-2.31,29.47-4.49,44.17-6.94,26.29-4.39,52.55-8.94,78.82-13.41a23,23,0,0,1,2.35-.16Q381.11,199,381.11,207.62Z"/><path class="cls-16" d="M241.63,220.7c1.56-4.47,1.56-4.47-2.84-7.45,3.89.09,6.75-.91,7.19-5.33.5,1.34,1,2.67,1.56,4.12l5.28-.59c-3.27,2.18-5.38,4.37-3.37,8.11l-3.52-2-4.18,3.3v-.13Z"/><path class="cls-16" d="M242.12,294.51c.25-1.51.5-3,.79-4.75l-3.45-2.31c3.74.06,5.83-1.58,5.93-5.55l.61.07,1.52,4,4.5-.58c-2.54,2.14-4.55,4.35-2.09,7.83-.5.06-.71.14-.77.08-2.9-3-4.95-.68-7.07,1.14Z"/><path class="cls-16" d="M249.9,195.21l-3.94-2.3-4.24,3.25-.1-.12c1.62-4.44,1.62-4.44-2.48-7.46,4,.15,6.53-1.09,6.21-5.64l.63.39c.51,1.33,1,2.66,1.59,4.09l4.5-.52c-3.21,2.09-4,4.78-2,8.15h-.15Z"/><path class="cls-16" d="M228.68,258.57l-1.34.73,0,.05c.29-1.51.58-3,.9-4.67l-3.38-2.18c1.39-1.66,4.56.62,5-2.63l1.31-3.4c.61,1.68,1.08,3,1.63,4.45l4.6-.39c0,.08,0,.29,0,.33-3,1.79-3.83,4.3-2.45,7.53l0,0a2.83,2.83,0,0,1-1.06-.36C231.91,256.21,230.2,256.41,228.68,258.57Z"/><path class="cls-16" d="M227.4,284c0-.15-.16-.33-.12-.44,1.24-2.9,1.38-5.41-2.58-6.4,1.77-1.54,5.1.41,5.32-3.08l1.14-3c.62,1.7,1.1,3,1.64,4.47l5.33-.48c-3.23,2.12-5.49,4.18-2.95,8-2.43-1.26-4.63-2.95-6.51.15l-1.3.76Z"/><path class="cls-16" d="M228.06,209.87l-1.27.58c1.8-3.36,2.09-6.1-2.09-7.18,1.56-1.65,4.75.56,5.23-2.74.34-.93.69-1.86,1.24-3.32l1.6,4.42,4.2-.24c-2.9,2.09-3.81,4.63-1.85,8.1C232.4,207.5,230.06,206.85,228.06,209.87Z"/><path class="cls-16" d="M228,234.51l-.7.11,0,0c0-.15-.13-.33-.08-.45,1.18-2.93,1.56-5.55-2.67-6.14,1.52-1.94,4.85.56,5.23-2.88l1.11-2.73c.65,3.8,2.89,4.61,6.52,3.43-2.73,2.27-5.07,4.41-1.63,8.17l-.93-.12-3.8-2.18Z"/><path class="cls-16" d="M242.09,245.11c.28-1.45.55-2.9.89-4.65l-3.52-2.23c3.88.07,5.88-1.8,6.56-5.61.46,1.28.93,2.56,1.47,4l5.37-.57c-3.3,2.17-5.44,4.34-3,8-3.22-2.4-5.6-1.21-7.85,1Z"/><path class="cls-16" d="M242.13,269.83c0-.15-.18-.31-.15-.44a12.83,12.83,0,0,0,.65-2.74,3.52,3.52,0,0,0-.77-2.22c-.57-.66-1.5-1-2.38-1.8,3.83.12,6-1.52,5.92-5.53l.6.1,1.49,4.12,5.33-.61c-3.33,2.21-5.31,4.44-2.93,8-3.21-2.31-5.62-1.37-7.79,1.06Z"/><polygon class="cls-29" points="241.75 220.84 241.63 220.7 241.76 220.71 241.75 220.84"/><path class="cls-16" d="M242.1,269.79l-.19.14.22-.1Z"/><path class="cls-29" d="M250.07,195.05a.26.26,0,0,1-.17.15l0-.15Z"/><path class="cls-29" d="M241.72,196.16l-.1-.12Z"/><path class="cls-16" d="M234.92,258.39l.2.05-.17-.09Z"/><path class="cls-16" d="M242.05,245.07l-.19.3c.07-.09.15-.17.23-.26Z"/><path class="cls-16" d="M242.09,294.46a1.3,1.3,0,0,1-.18.15s-.08,0-.11-.06l.32,0Z"/><path class="cls-7" d="M228.8,303q0,8.72,0,17.43l-8.59,1.23c-3,.34-5.95.71-8.94,1q-13.77,1.35-27.56,2.65V308l20.41-2.25,22.11-2.51C227.07,303.13,227.94,303.09,228.8,303Z"/><path class="cls-16" d="M220.24,223.24c-.15,0-.34,0-.45,0-2.42-1.66-4.65-1.69-6.65.7-.15.17-.5.18-.86.29.49-1.55,1.51-3.08,1.18-4.23s-2-1.9-3.63-3.28c4.25.73,5.74-1.53,6.38-5.36.87,1.87,1.14,3.71,2.11,4.22s2.85,0,4.32-.07c0,.14,0,.39-.06.43-3.18,1.7-3.5,4.3-2.37,7.37Z"/><path class="cls-15" d="M205,212.61l-3.05-2-3.71,2.89c1.31-3.33.84-5.82-2.75-7.31l4.64-.6,1.7-4.88c.59,1.48,1,2.53,1.42,3.58.57.29,1.14.8,1.72.83a19.56,19.56,0,0,0,3.13-.33l.43.6a11.52,11.52,0,0,0-1.07.47c-2.35,1.39-3.5,3.16-1.9,5.86C205.62,211.84,205.17,212.3,205,212.61Z"/><path class="cls-16" d="M220.47,297.47c-3.08-3-5.45-2.12-7.8.87,1.24-3.41,1.34-6.14-2.91-7.23,2-.53,3.83-.5,4.83-1.41s1.1-2.71,1.91-4.46c.33,4.4,2.62,5.36,6.5,4C220,291.35,218.21,293.64,220.47,297.47Z"/><path class="cls-16" d="M197.92,287.29a3.35,3.35,0,0,1,.05-.71c1.07-4.08,1.07-4.08-3.15-6.46,4,.1,6.72-.89,7.13-5.1.21.5.43,1,.63,1.52s.44,1.17.66,1.76c.51.25,1,.7,1.54.71,1.05,0,2.1-.17,3.39-.08-3.33,1.93-4.41,4.4-1.81,8.1l-2.26-1-2-1.42-4.17,2.68Z"/><path class="cls-16" d="M223.38,264.64c-3.11,2.11-5.42,4.16-2.68,7.84l-.62.13-3.84-1.86-3.7,2.87-.78,0c2.61-3.31,2.25-5.77-1.82-7.41,4.28.46,5.95-1.64,6.68-5.17l1.48,4Z"/><path class="cls-16" d="M209.86,241.59c4.22.54,5.78-1.66,6.35-5.55.89,1.86,1.18,3.7,2.17,4.2s2.85,0,5-.18c-3.15,2-5.33,4.13-2.85,8-3.18-3-5.55-1.65-8,.89C214.14,245.61,213.94,243,209.86,241.59Z"/><path class="cls-16" d="M220.25,198.56c-.23,0-.52,0-.68-.08-2.08-1.49-4-1.9-5.87.4-.26.33-.76.47-1.79,1.06,2.2-3.5,2.21-6.05-2-7.55,4.05.21,6.15-1.41,6.38-5.6.76,3.66,2.44,5.46,6,3.93.07.37.16.61.12.63-3.12,1.69-3.35,4.26-2.23,7.25Z"/><path class="cls-15" d="M205,237.26l-3.11-2.06-3.61,2.88c1-3.13,1.13-5.83-3.12-7.09,4.12.26,6.16-1.6,6.39-5.43l2.54,4.23,4.34-.39a7,7,0,0,1-1,1.06c-2.39,1.43-3.42,3.24-1.86,5.92C205.64,236.52,205.2,237,205,237.26Z"/><path class="cls-16" d="M205.05,261.92l-3.15-2.06c-1.3,1-2.51,1.95-3.73,2.88,1.15-3.18,1.22-5.78-2.54-7.22,1.5-.27,3.41-.08,4.39-1s1.16-2.81,1.8-4.63l1.42,3.68c.51.28,1,.79,1.52.8a28,28,0,0,0,3.6-.43c-.4.51-.53.81-.76.94-2.6,1.48-3.56,3.46-2,6.28C205.66,261.31,205.24,261.68,205.05,261.92Z"/><path class="cls-16" d="M227.37,284l-.15.16.18-.12Z"/><path class="cls-16" d="M227.34,259.3l-.19.3.23-.25Z"/><path class="cls-16" d="M220.21,198.6l.2.06-.16-.1Z"/><path class="cls-16" d="M227.34,234.62a.62.62,0,0,1-.07.19s-.08,0-.13,0l.24-.17Z"/><path class="cls-16" d="M220.21,223.28l.25.15c-.05,0-.12,0-.14,0a1,1,0,0,1-.08-.18Z"/><path class="cls-15" d="M183.21,202.85c0-.55.07-1.11.11-1.67.35-1.44,2.25-3.08-.54-4.11l-2.16-1.63,2.13-.55c1.14-.15,2.59.58,3.1-1.23.33-1.19.78-2.34,1.26-3.77,1.85,4.6,1.85,4.6,6.76,4.13-1.51,1.3-3.21,2.09-3.61,3.3s.45,2.94.75,4.43c-.12,0-.33.16-.37.12C187.7,198.73,185.47,200.88,183.21,202.85Z"/><path class="cls-15" d="M183.6,271.48l-3-2.15,2.16-.54c4.05.94,2.92-3.15,4.53-4.74l1.5,4.25,4.53-.36c-2.8,2.06-4.44,4.35-2.37,8l-3.84-2.28-3.77,3.15,0-1.65C183.59,274,185.08,272.83,183.6,271.48Z"/><path class="cls-15" d="M183.2,301.34l.09-1.54.36-3.66-3.12-2.22,2.22-.47c4,.81,3-3.08,4.48-4.88.52,1.49,1,2.84,1.55,4.39l5.18-.43-4.11,3.53c.43,1.43.86,2.88,1.43,4.76l-4.1-2.49Z"/><path class="cls-15" d="M182.79,221.72l-2.16-1.62,2.12-.58c3.86.82,3.06-2.81,4.56-5,.44,4.12,2.51,5.43,6.24,4.43l-3.71,3.19c.44,1.46.86,2.87,1.29,4.27-.22.06-.32.12-.35.1-2.45-2.07-4.75-2.21-6.9.46-.12.15-.54.07-.82.09.09-.4.17-.81.26-1.22C183.59,224.42,185.62,222.76,182.79,221.72Z"/><path class="cls-15" d="M182.81,246.34l-2.14-1.61,2.08-.58c4.08.94,2.91-3.16,4.52-4.78l1.52,4.27,5-.34-3.95,3.5,1.33,4.66-4.08-2.41-3.83,3.11,0-1.63C183.64,249.07,185.57,247.42,182.81,246.34Z"/><path class="cls-16" d="M197.88,287.25v.2c0-.06,0-.11,0-.16Z"/><path class="cls-15" d="M165.91,233.63c4,.33,6.13-1.19,6.42-5.29.89,3.59,2.44,5.66,6.54,3.93-2.78,2.21-4.93,4.37-2.25,8.16-2.94-2-5.59-2.94-8.08.68C170.05,237.7,169.93,235.11,165.91,233.63Z"/><path class="cls-15" d="M179,207.89l-3.89,3.32,1.48,4.74c-2.85-1.71-5.59-3.41-8,.53,1.27-3.36,1.44-6-2.36-7.56,1.49-.21,3.39.06,4.36-.76s1.18-2.79,1.84-4.6c.65,1.67.81,3.56,1.78,4.18S177.09,207.89,179,207.89Z"/><path class="cls-25" d="M172.19,277.05c.91,2.11,1.16,4,2.23,4.77s2.8-.06,4.52,0c-3.14,1.89-4.75,4.19-2.65,7.85l-3.84-2.3-4,3.15c.45-1.91,1.35-3.54,1-4.74s-2.12-1.88-3.94-3.33C170.16,283.44,171.9,281.34,172.19,277.05Z"/><path class="cls-15" d="M165.86,258.27c4.55.65,6-1.72,6.54-5.4.81,3.57,2.09,6.09,6.57,3.95-2.94,2.29-4.9,4.5-2.32,8.29-2.94-1.84-5.67-3.06-8.15.63C169.74,262.46,170.49,259.66,165.86,258.27Z"/><path class="cls-23" d="M182.79,221.72c2.83,1,.8,2.7.53,4.13C183.14,224.48,183,223.1,182.79,221.72Z"/><path class="cls-23" d="M182.81,246.34c2.76,1.08.83,2.73.51,4.19Z"/><path class="cls-23" d="M182.78,197.07c2.79,1,.89,2.67.54,4.11Z"/><path class="cls-23" d="M183.6,271.48c1.48,1.35,0,2.47-.3,3.68C182.8,273.88,182.09,272.59,183.6,271.48Z"/><path class="cls-23" d="M183.65,296.14l-.36,3.66C182.79,298.52,182.08,297.22,183.65,296.14Z"/><path class="cls-12" d="M130.55,329.05l23.77-1.23.88.23q0,8.61,0,17.22l-4.28.49c-2.75.13-5.49.25-8.23.4q-8.46.46-16.92,1l-15.67.27V330l18.32-.76C129.16,329.25,129.85,329.13,130.55,329.05Z"/><path class="cls-11" d="M220.2,392.3c.17,2.1.44,4.2.49,6.3.08,3.7,0,7.41,0,11.11L181.81,414q-.24-8.74-.49-17.48l3.33-.56,35.61-3.8Z"/><path class="cls-16" d="M184.65,395.92l-3.33.56c-7,.55-14.09,1.11-21.14,1.64-1.65.12-3.3.14-5,.21v-17.5c.7-.08,1.4-.18,2.11-.24q12.22-1.11,24.46-2.19l2.85,0Z"/><path class="cls-15" d="M155.23,380.83v17.5l-6.18.62-18.5.75V382.23c2.28-.16,4.55-.34,6.83-.48l11.3-.67Z"/><path class="cls-25" d="M379.68,410.21l9-1.43c0,5.13-.07,10.27,0,15.4,0,1.84-.61,2.83-2.37,3.17-5.61,1.1-11.17,2.72-16.83,3.18-8.17.65-16.41.44-24.62.64-3.13.07-6.28.45-9.41.36-4.54-.14-9.08-.62-13.62-.86-1.48-.08-3,.24-4.46.19a9,9,0,0,1-2.28-.71c2.49-.16,5-.44,7.48-.43,2.82,0,5.64.38,8.46.41,6.58.06,13.18.3,19.74-.06,6.86-.39,13.69-1.36,20.52-2.16,1.94-.22,3.84-.77,5.77-1s2.65-1.2,2.6-3.17C379.6,419.21,379.68,414.71,379.68,410.21Z"/><path class="cls-28" d="M386.31,366l-5.22,1c-9.36,1.48-18.73,2.87-28.06,4.45q-34.9,5.91-69.78,12l-63.05,9,.06-.18,0-17.52.48-.38c1.26-.1,2.52-.15,3.76-.31,7.82-1,15.65-1.94,23.44-3.09,11.84-1.75,23.66-3.65,35.49-5.49,6.85-1.08,13.71-2.09,20.54-3.25q31.23-5.34,62.44-10.75c5.69-1,11.41-1.83,17.11-2.74l2.78-.27Z"/><path class="cls-16" d="M386.31,366l0-17.63,11-1.69,1.89.08q0,8.73,0,17.48l-7.11,1.1Z"/><path class="cls-12" d="M399.12,346.71l-1.89-.08V329.32l4.27-.69,5.64-.27.06,17.28-.54.31Z"/><path class="cls-13" d="M417.16,345.71l-1.88-.21V328.15l1.88-.21,6.19.54.46.22c0,4.7,0,9.4,0,14.1a18.7,18.7,0,0,1-.59,3.18Z"/><path class="cls-14" d="M415.27,328.15V345.5l-8.07.14-.06-17.28,1-.25Z"/><path class="cls-8" d="M417.16,345.71l6,.27a2.53,2.53,0,0,1,.13.22l0,17.5-6.19-.49Q417.15,354.47,417.16,345.71Z"/><path class="cls-14" d="M423.32,346.2a2.53,2.53,0,0,0-.13-.22,18.7,18.7,0,0,0,.59-3.18c.06-4.7,0-9.4,0-14.1l1.5.1,1.39.64q0,8.58,0,17.17l-.47.1Z"/><path class="cls-27" d="M155.23,380.83l-6.55.25q-.06-8.67-.1-17.34l2.4-.42,30.77-2.24q0,8.66.05,17.32-12.24,1.1-24.46,2.19C156.63,380.65,155.93,380.75,155.23,380.83Z"/><path class="cls-15" d="M151,363.32l-2.4.42-20,.88c-.94,0-1.88,0-2.82,0V347.13q8.46-.5,16.92-1c2.74-.15,5.48-.27,8.23-.4Q151,354.54,151,363.32Z"/><path class="cls-11" d="M381.11,207.62q0-8.58,0-17.17l3.8-.91,7.6-.81c.16,1.78.42,3.55.45,5.34.07,4,0,8,0,12l-8.57,1.4Z"/><path class="cls-27" d="M393,206.05c0-4,.05-8,0-12,0-1.79-.29-3.56-.45-5.34l4.74-.73,5.22-.34q0,8.61,0,17.21l-6.67.95Z"/><path class="cls-9" d="M402.47,204.87q0-8.61,0-17.21l3.79-.54,5.23-.22q0,8.68,0,17.36l-6.64.61Z"/><path class="cls-13" d="M423.33,187.2a1.12,1.12,0,0,1,.08.26q0,8.63-.07,17.25l-6.19-.25-.46-.2q0-8.69,0-17.37l.46-.2Z"/><path class="cls-14" d="M416.7,186.89q0,8.69,0,17.37l-4.77.21-.46-.21q0-8.69,0-17.36Z"/><path class="cls-14" d="M423.34,204.71q0-8.62.07-17.25l2.71.32a1.57,1.57,0,0,0,.08.31l0,17.16-2.74-.3A1.17,1.17,0,0,0,423.34,204.71Z"/><path class="cls-8" d="M424.29,293.36l-.49.14-7.07-.71-1-.28q0-8.73,0-17.45l.49-.17,7.11.48,1,.34Q424.32,284.53,424.29,293.36Z"/><path class="cls-14" d="M424.33,275.71l-1-.34,0-17.38,2.88.38a1.53,1.53,0,0,1,.11.27l-.12,17.24Z"/><path class="cls-13" d="M416.73,292.79l7.07.71,0,17.16-6.62-.38-.46-.2Z"/><path class="cls-8" d="M417.15,310.28l6.62.38a1.89,1.89,0,0,0,.09.34,12.26,12.26,0,0,0-.5,2.42c-.05,5,0,10,0,15.06l-6.19-.54Z"/><path class="cls-18" d="M423.34,328.48c0-5,0-10,0-15.06a12.26,12.26,0,0,1,.5-2.42l2.32.49c0,4.95,0,9.9,0,14.84a8.22,8.22,0,0,1-.84,2.47l-1.5-.1Z"/><path class="cls-18" d="M423.43,205l2.74.3a1.39,1.39,0,0,1,0,.35l0,17.56-2.38-.33-.46-.27Z"/><path class="cls-14" d="M423.8,222.83l2.38.33.57.3c0,4.85,0,9.7-.13,14.55a10,10,0,0,1-.74,2.53l-2.54-.21a2.53,2.53,0,0,1-.18-.37,10.35,10.35,0,0,0,.62-2.35C423.83,232.68,423.8,227.76,423.8,222.83Z"/><path class="cls-18" d="M423.34,240.33l2.54.21a2.21,2.21,0,0,0,.29.32q0,8.76,0,17.51L423.3,258l.06-.15Q423.35,249.08,423.34,240.33Z"/><path class="cls-11" d="M183.69,325.35q13.78-1.32,27.56-2.65c3-.3,6-.67,8.94-1q0,8.65,0,17.31c-5.22.65-10.44,1.33-15.67,1.93-7.1.81-14.21,1.55-21.32,2.32l-.48-.21V325.78Z"/><path class="cls-27" d="M182.75,325.78q0,8.63,0,17.26l-27.52,2.23q0-8.61,0-17.22c4.47-.4,8.94-.83,13.41-1.2C173.32,326.46,178,326.13,182.75,325.78Z"/><path class="cls-22" d="M268.54,315l77.74-13c10.9-1.82,21.79-3.68,32.68-5.5.85-.14,1.73-.13,2.59-.19,0,4.89,0,9.78,0,14.67a15.1,15.1,0,0,0,.43,2.46,1.31,1.31,0,0,0-.06.27,5.65,5.65,0,0,0-.71.05q-41.92,7.06-83.84,14.12c-9.58,1.6-19.18,3-28.78,4.49Z"/><path class="cls-17" d="M268.54,315l.09,17.34c-.92.18-1.84.4-2.78.53q-22.56,3.17-45.14,6.29l-.48-.15q0-8.65,0-17.31l8.59-1.23L261.53,316C263.87,315.7,266.2,315.34,268.54,315Z"/><path class="cls-11" d="M382,313.4a15.1,15.1,0,0,1-.43-2.46c0-4.89,0-9.78,0-14.67l1-.45,11.38-1.51.49.16.05,17.22-2,.45Z"/><path class="cls-7" d="M393.9,294.31l-11.38,1.51V278.34l3-.67,8-.85c0,3.08-.06,6.17,0,9.25C393.52,288.82,393.75,291.56,393.9,294.31Z"/><path class="cls-11" d="M383.5,242.64q0-8.67,0-17.36l.93-.25,10.92-1.29q0,8.61.05,17.21a1.26,1.26,0,0,1-.05.33l-11.89,1.53Z"/><path class="cls-7" d="M395.33,223.74,384.41,225q0-8.79,0-17.58l8.57-1.4,2.84-.23v17.66Z"/><path class="cls-11" d="M393.44,276.82l-8,.85a19.57,19.57,0,0,1-.56-3.19c-.06-4.7,0-9.4,0-14.1l10.43-1.6,3.81-.27v17.35Z"/><path class="cls-7" d="M395.33,258.78l-10.43,1.6h-1.42q0-8.77,0-17.56l11.89-1.53Z"/><path class="cls-16" d="M155.24,345.27,182.76,343l.48.21,0,17.54-1.47.29L151,363.32q0-8.79,0-17.56Z"/><path class="cls-7" d="M220.23,374.6l0,17.52-35.61,3.8V378.43c5.06-.56,10.12-1.14,15.18-1.69C206.63,376,213.43,375.31,220.23,374.6Z"/><path class="cls-11" d="M220.23,374.6c-6.8.71-13.6,1.41-20.4,2.14-5.06.55-10.12,1.13-15.18,1.69l-2.85,0q0-8.67-.05-17.32l1.47-.29c4.17-.38,8.34-.71,12.5-1.14,8.33-.84,16.65-1.74,25-2.62q0,8.6,0,17.19Z"/><path class="cls-22" d="M383.49,348.59c-5.7.91-11.42,1.77-17.11,2.74q-31.23,5.35-62.44,10.75c-6.83,1.16-13.69,2.17-20.54,3.25q0-8.62,0-17.25L295.47,346,382,331.28l1.44-.08Z"/><path class="cls-17" d="M283.35,348.08q0,8.63,0,17.25c-11.83,1.84-23.65,3.74-35.49,5.49-7.79,1.15-15.62,2.08-23.44,3.09-1.24.16-2.5.21-3.76.31q0-8.6,0-17.19a1.19,1.19,0,0,0,.05-.32c13-1.71,26-3.37,39-5.14C267.6,350.5,275.47,349.25,283.35,348.08Z"/><path class="cls-11" d="M383.49,348.59V331.2l9-1.43,4.76-.45v17.31l-11,1.69Z"/><path class="cls-15" d="M397.24,329.32l-4.76.45-.07-17.63,2-.45,7.06-.58q0,8.76,0,17.52Z"/><path class="cls-10" d="M401.51,328.63q0-8.76,0-17.52l2.39-.49,4.25,0q0,8.76,0,17.52l-1,.25Z"/><path class="cls-18" d="M408.15,328.11q0-8.76,0-17.52l3.8-.48,4.75,0,.46.2v17.66l-1.88.21Z"/><path class="cls-25" d="M395.8,223.48V205.82l6.67-.95h2.35q0,8.77,0,17.55l-1.9.44Z"/><path class="cls-10" d="M404.83,222.42q0-8.78,0-17.55l6.64-.61.46.21q0,8.82,0,17.64l-1.42.21Z"/><path class="cls-8" d="M423.43,205l-.09,17.61-6.18-.5q0-8.81,0-17.6l6.19.25A1.17,1.17,0,0,1,423.43,205Z"/><path class="cls-18" d="M417.15,204.46q0,8.81,0,17.6l-1,.16-4.28-.11q0-8.82,0-17.64l4.77-.21Z"/><path class="cls-13" d="M423.3,258l0,17.38-7.11-.48,0-17.38,7.17.33Z"/><path class="cls-14" d="M416.19,257.51l0,17.38-.49.17-6.17-.11q0-8.68,0-17.36l1.89-.25h4.78Z"/><path class="cls-18" d="M409.56,275l6.17.11v17.45l-3.77.42-2.38-.18V275.17Z"/><path class="cls-14" d="M412,292.93l3.77-.42,1,.28q0,8.64,0,17.29l-4.75,0Z"/><path class="cls-13" d="M416.21,222.22l1-.16,6.18.5.46.27c0,4.93,0,9.85,0,14.78a10.35,10.35,0,0,1-.62,2.35l-7-.51Z"/><path class="cls-8" d="M416.16,239.45l7,.51a2.53,2.53,0,0,0,.18.37q0,8.76,0,17.51l-7.17-.33.05-.17-.06-17.54C416.17,239.68,416.16,239.57,416.16,239.45Z"/><path class="cls-7" d="M220.75,356.71a1.19,1.19,0,0,1-.05.32c-8.33.88-16.65,1.78-25,2.62-4.16.43-8.33.76-12.5,1.14l0-17.54c7.11-.77,14.22-1.51,21.32-2.32,5.23-.6,10.45-1.28,15.67-1.93l.48.15Q220.73,347.93,220.75,356.71Z"/><path class="cls-28" d="M220.75,356.71q0-8.79,0-17.56,22.57-3.13,45.14-6.29c.94-.13,1.86-.35,2.78-.53,9.6-1.49,19.2-2.89,28.78-4.49q41.93-7,83.84-14.12a5.65,5.65,0,0,1,.71-.05q0,8.81.08,17.61L295.47,346l-12.12,2.05c-7.88,1.17-15.75,2.42-23.64,3.49C246.73,353.34,233.73,355,220.75,356.71Z"/><path class="cls-7" d="M382,331.28q0-8.8-.08-17.61a1.31,1.31,0,0,1,.06-.27l10.39-1.26q0,8.82.07,17.63l-9,1.43Z"/><path class="cls-12" d="M403.89,310.62l-2.39.49-7.06.58-.05-17.22,8.05-1.16,1.42.1Z"/><path class="cls-15" d="M402.44,293.31l-8.05,1.16-.49-.16c-.15-2.75-.38-5.49-.45-8.24-.07-3.08,0-6.17,0-9.25l5.69-1,2.83,0Z"/><path class="cls-25" d="M395.33,258.78v-17.5a1.26,1.26,0,0,0,.05-.33l7.55-.76,1.42.1v17.52l-5.21.7Z"/><path class="cls-12" d="M402.93,240.19l-7.55.76q0-8.61-.05-17.21l.47-.26,7.13-.62Z"/><path class="cls-12" d="M399.14,258.51l5.21-.7,5.22-.22V275l0,.22-7.64.66-2.83,0Q399.13,267.19,399.14,258.51Z"/><path class="cls-9" d="M403.89,310.62l0-17.21,5.73-.66,2.38.18,0,17.18-3.8.48Z"/><path class="cls-9" d="M402.93,240.19V222.86l1.9-.44,5.68-.1q0,8.69,0,17.37l-6.17.6Z"/><path class="cls-14" d="M410.52,239.69q0-8.69,0-17.37l1.42-.21,4.28.11,0,17.23c0,.12,0,.23,0,.35l-4.71,0Z"/><path class="cls-10" d="M410.52,239.69l1,.15q0,8.74,0,17.5l-1.89.25-5.22.22V240.29Z"/><path class="cls-18" d="M411.46,257.34q0-8.76,0-17.5l4.71,0,.06,17.54Z"/><path class="cls-10" d="M409.59,292.75l-5.73.66-1.42-.1L402,275.83l7.64-.66Q409.6,284,409.59,292.75Z"/></svg>