<svg width="13" height="12" viewBox="0 0 13 12" fill="none" xmlns="http://www.w3.org/2000/svg">
<path d="M1.5 2.5C1.5 2.22386 1.72386 2 2 2H3C3.27614 2 3.5 2.22386 3.5 2.5V8C3.5 8.27614 3.27614 8.5 3 8.5H2C1.72386 8.5 1.5 8.27614 1.5 8V2.5Z" fill="#E83681"/>
<rect x="4" y="2" width="7.5" height="0.5" fill="white" fill-opacity="0.32"/>
<rect x="4" y="3" width="7.5" height="0.5" fill="white" fill-opacity="0.32"/>
<rect x="4" y="4" width="7.5" height="0.5" fill="white" fill-opacity="0.32"/>
<rect x="4" y="5" width="7.5" height="0.5" fill="white" fill-opacity="0.32"/>
<rect x="4" y="6" width="7.5" height="0.5" fill="white" fill-opacity="0.32"/>
<rect x="4" y="7" width="7.5" height="0.5" fill="white" fill-opacity="0.32"/>
<rect x="4" y="8" width="7.5" height="0.5" fill="white" fill-opacity="0.32"/>
<rect x="1.5" y="9" width="10" height="0.5" fill="white" fill-opacity="0.32"/>
</svg>
