<svg width="13" height="12" viewBox="0 0 13 12" fill="none" xmlns="http://www.w3.org/2000/svg">
<path d="M1.5 3.5C1.5 3.22386 1.72386 3 2 3H3C3.27614 3 3.5 3.22386 3.5 3.5V9C3.5 9.27614 3.27614 9.5 3 9.5H2C1.72386 9.5 1.5 9.27614 1.5 9V3.5Z" fill="#74DE9F"/>
<rect x="1.5" y="2" width="10" height="0.5" fill="white" fill-opacity="0.32"/>
<rect x="4" y="3" width="7.5" height="0.5" fill="white" fill-opacity="0.32"/>
<rect x="4" y="4" width="7.5" height="0.5" fill="white" fill-opacity="0.32"/>
<rect x="4" y="5" width="7.5" height="0.5" fill="white" fill-opacity="0.32"/>
<rect x="4" y="6" width="7.5" height="0.5" fill="white" fill-opacity="0.32"/>
<rect x="4" y="7" width="7.5" height="0.5" fill="white" fill-opacity="0.32"/>
<rect x="4" y="8" width="7.5" height="0.5" fill="white" fill-opacity="0.32"/>
<rect x="4" y="9" width="7.5" height="0.5" fill="white" fill-opacity="0.32"/>
</svg>
